<?xml version="1.0" standalone="no"?>
<!DOCTYPE svg PUBLIC "-//W3C//DTD SVG 1.1//EN" "http://www.w3.org/Graphics/SVG/1.1/DTD/svg11.dtd" >
<svg xmlns="http://www.w3.org/2000/svg">
<metadata></metadata>
<defs>
<font id="gt_walsheim_prolight_oblique" horiz-adv-x="1167" >
<font-face units-per-em="2048" ascent="1495" descent="-553" />
<missing-glyph horiz-adv-x="522" />
<glyph unicode="&#xfb01;" horiz-adv-x="1204" d="M129 793l12 114h207l21 203q12 113 47 179.5t81 101t98 45t97 10.5q47 0 76 -7t49 -18l-12 -114q-23 10 -47.5 14t-61.5 4q-31 0 -61.5 -5t-57 -25.5t-46 -61.5t-27.5 -111l-23 -215h283l-12 -114h-283l-84 -793h-133l84 793h-207zM879 0l96 907h133l-96 -907h-133z M961 1251q0 53 37.5 91t91.5 38q47 0 77.5 -30.5t30.5 -77.5q0 -53 -39 -90t-92 -37q-47 0 -76.5 30.5t-29.5 75.5z" />
<glyph unicode="&#xfb02;" horiz-adv-x="1159" d="M129 793l12 114h207l21 203q12 113 47 179.5t81 101t98 45t97 10.5q47 0 76 -7t49 -18l-12 -114q-23 10 -47.5 14t-61.5 4q-31 0 -61.5 -5t-57 -25.5t-46 -61.5t-27.5 -111l-23 -215h283l-12 -114h-283l-84 -793h-133l84 793h-207zM856 0l152 1434h133l-152 -1434h-133z " />
<glyph unicode="&#xfb03;" horiz-adv-x="1890" d="M129 793l12 114h207l21 203q12 113 47 179.5t81 101t98 45t97 10.5q47 0 76 -7t49 -18l-12 -114q-23 10 -47.5 14t-61.5 4q-31 0 -61.5 -5t-57 -25.5t-46 -61.5t-27.5 -111l-23 -215h283l-12 -114h-283l-84 -793h-133l84 793h-207zM815 793l12 114h207l21 203 q12 113 47 179.5t81 101t98 45t97 10.5q47 0 76 -7t49 -18l-12 -114q-23 10 -47.5 14t-61.5 4q-31 0 -61.5 -5t-57 -25.5t-46 -61.5t-27.5 -111l-23 -215h283l-12 -114h-283l-84 -793h-133l84 793h-207zM1565 0l96 907h133l-96 -907h-133zM1642 1251q0 55 40 95t94 40 q49 0 80.5 -32.5t31.5 -79.5q0 -55 -41 -94t-96 -39q-47 0 -78 31.5t-31 78.5z" />
<glyph unicode="&#xfb04;" horiz-adv-x="1841" d="M129 793l12 114h207l21 203q12 113 47 179.5t81 101t98 45t97 10.5q47 0 76 -7t49 -18l-12 -114q-23 10 -47.5 14t-61.5 4q-31 0 -61.5 -5t-57 -25.5t-46 -61.5t-27.5 -111l-23 -215h283l-12 -114h-283l-84 -793h-133l84 793h-207zM815 793l12 114h207l21 203 q12 113 47 179.5t81 101t98 45t97 10.5q47 0 76 -7t49 -18l-12 -114q-23 10 -47.5 14t-61.5 4q-31 0 -61.5 -5t-57 -25.5t-46 -61.5t-27.5 -111l-23 -215h283l-12 -114h-283l-84 -793h-133l84 793h-207zM1542 0l152 1434h133l-152 -1434h-133z" />
<glyph horiz-adv-x="0" />
<glyph horiz-adv-x="0" />
<glyph unicode="&#xd;" horiz-adv-x="512" />
<glyph unicode=" "  horiz-adv-x="522" />
<glyph unicode="&#x09;" horiz-adv-x="522" />
<glyph unicode="&#xa0;" horiz-adv-x="522" />
<glyph unicode="!" horiz-adv-x="579" d="M174 92q0 57 42 98t97 41q51 0 84 -33.5t33 -80.5q0 -57 -43 -98.5t-98 -41.5q-51 0 -83 34t-32 81zM260 416l109 1034h145l-108 -1034h-146z" />
<glyph unicode="&#x22;" horiz-adv-x="655" d="M250 954l16 410l10 104h127l-10 -104l-69 -410h-74zM532 954l17 410l10 104h127l-10 -104l-70 -410h-74z" />
<glyph unicode="#" horiz-adv-x="1126" d="M104 438l11 107h223l84 344h-209l12 106h226l104 439h113l-105 -439h307l105 439h112l-104 -439h188l-12 -106h-205l-84 -344h191l-10 -107h-205l-107 -438h-112l106 438h-307l-107 -438h-112l106 438h-209zM451 545h307l84 344h-307z" />
<glyph unicode="$" horiz-adv-x="1171" d="M184 444h140q-16 -166 76 -257t257 -91q80 0 145.5 21.5t114 59.5t75 93.5t26.5 122.5q0 68 -24.5 112t-65.5 73.5t-92.5 48t-106.5 32.5q-86 25 -164 52.5t-136 69.5t-93 103.5t-35 155.5q0 170 113.5 286t320.5 136l23 207h106l-22 -209q178 -16 273 -127.5t79 -298.5 h-141q6 66 -6.5 122t-46 96t-89 62.5t-135.5 22.5q-74 0 -135 -19.5t-105 -56t-69 -87t-25 -111.5q0 -63 25 -105.5t65.5 -71t93 -48t109.5 -33.5q80 -23 156 -50.5t136 -70.5t96 -107.5t36 -162.5q0 -92 -33.5 -170t-96 -135.5t-150.5 -93t-195 -44.5l-20 -207h-107l21 207 q-98 8 -175 45t-129.5 98.5t-76 145.5t-13.5 184z" />
<glyph unicode="%" horiz-adv-x="1808" d="M229 895l31 293q6 53 29.5 100t63.5 83t93.5 56.5t114.5 20.5q63 0 112.5 -21.5t82 -58.5t48 -85t9.5 -103l-31 -293q-6 -53 -30.5 -100.5t-65.5 -82t-94 -55t-117 -20.5q-63 0 -111.5 21.5t-80 57t-46 84t-8.5 103.5zM342 895q-8 -68 30 -120t115 -52q76 0 125.5 51 t57.5 121l30 285q4 33 -4 63.5t-26.5 55t-48 39t-68.5 14.5q-41 0 -72.5 -15.5t-54.5 -40t-37 -55.5t-16 -61zM408 -2l1056 1542l101 -63l-1057 -1543zM1145 250l31 295q6 51 30.5 98t64.5 83t93 56.5t115 20.5q63 0 112 -21.5t81 -58.5t47.5 -85t9.5 -101l-33 -295 q-6 -53 -31 -99.5t-64.5 -82t-93 -56t-114.5 -20.5q-63 0 -112.5 21.5t-81.5 58t-46 85t-8 101.5zM1257 250q-8 -70 31 -120t115 -50t125 50t57 120l31 287q8 70 -32 120t-116 50t-124 -50.5t-56 -119.5z" />
<glyph unicode="&#x26;" horiz-adv-x="1226" d="M141 362q0 147 87 243.5t229 137.5q-104 33 -161.5 106t-57.5 187q0 94 37.5 171t104 132.5t155 86t186.5 30.5q100 0 179 -30.5t131 -86t75.5 -131t13.5 -164.5h-141q14 127 -54.5 205t-217.5 78q-147 0 -236.5 -75.5t-89.5 -207.5q0 -104 65.5 -170.5t212.5 -66.5h60 l-12 -125h-60q-90 0 -158.5 -24.5t-114.5 -67.5t-69.5 -99.5t-23.5 -117.5q0 -117 79.5 -192t223.5 -75q168 0 261 102.5t111 270.5h-188l14 127h465l-14 -127h-135q-12 -111 -54.5 -203t-110 -158.5t-157.5 -103.5t-201 -37q-92 0 -171.5 27t-138 77t-91.5 121.5t-33 159.5 z" />
<glyph unicode="'" horiz-adv-x="372" d="M250 954l16 410l10 104h127l-10 -104l-69 -410h-74z" />
<glyph unicode="(" horiz-adv-x="708" d="M201 -16l123 1167q10 96 53 183t111.5 151.5t159.5 102.5t200 38l-12 -127q-76 0 -140.5 -27.5t-114 -74.5t-80 -110.5t-38.5 -135.5l-123 -1167q-8 -72 9.5 -134.5t56 -109.5t98 -74.5t135.5 -27.5l-12 -130q-109 0 -192 38t-138 103.5t-81 151.5t-15 183z" />
<glyph unicode=")" horiz-adv-x="708" d="M-20 -492l14 130q76 0 141.5 27.5t113.5 74.5t77.5 109.5t38.5 134.5l122 1167q8 72 -9 135.5t-56 110.5t-98.5 74.5t-135.5 27.5l15 127q109 0 191.5 -38t138 -102.5t80 -151.5t14.5 -183l-123 -1167q-10 -96 -52 -182.5t-112 -152t-161 -103.5t-199 -38z" />
<glyph unicode="*" horiz-adv-x="929" d="M221 1165l39 90l295 -118l18 331h97l-52 -331l318 118l20 -90l-327 -88l190 -272l-90 -60l-154 289l-219 -289l-73 60l243 272z" />
<glyph unicode="+" d="M236 522l12 121h336l37 344h133l-37 -344h338l-13 -121h-337l-37 -342h-133l36 342h-335z" />
<glyph unicode="," horiz-adv-x="512" d="M102 -238l9 74q119 0 153 84q16 29 18.5 49.5t4.5 36.5q-20 -16 -56 -16q-49 0 -78.5 31.5t-29.5 78.5q0 55 41 95.5t104 40.5q66 0 102 -49.5t36 -141.5q0 -139 -81 -211t-223 -72z" />
<glyph unicode="-" horiz-adv-x="602" d="M117 522l12 121h479l-12 -121h-479z" />
<glyph unicode="." horiz-adv-x="471" d="M123 102q0 55 41 94.5t94 39.5q49 0 81 -33t32 -80q0 -53 -41 -93t-97 -40q-49 0 -79.5 32.5t-30.5 79.5z" />
<glyph unicode="/" horiz-adv-x="860" d="M10 -96l928 1732l117 -53l-928 -1730z" />
<glyph unicode="0" horiz-adv-x="1183" d="M162 449l57 534q10 96 52 183t112 151.5t161 102.5t199 38q109 0 194 -38t140.5 -102.5t81 -151.5t15.5 -183l-58 -534q-10 -96 -53 -182.5t-111.5 -151t-161 -102.5t-200.5 -38q-109 0 -194 38t-140 102.5t-79.5 150.5t-14.5 183zM301 449q-8 -72 9.5 -134.5 t56.5 -109.5t97 -75t136 -28t143.5 28t114.5 75t79 109.5t38 134.5l57 534q8 72 -9 135.5t-57 110.5t-99.5 74.5t-137.5 27.5t-142.5 -27.5t-112.5 -74.5t-77.5 -110.5t-38.5 -135.5z" />
<glyph unicode="1" horiz-adv-x="665" d="M178 1081l12 115q94 0 153.5 13.5t94.5 41t51.5 72.5t22.5 111h133l-149 -1434h-144l113 1081h-287z" />
<glyph unicode="2" horiz-adv-x="1077" d="M96 0q18 168 56 282.5t99.5 193.5t146.5 131t196 100q68 27 132.5 57.5t116.5 73.5t83.5 101t31.5 140q0 119 -69.5 183.5t-194.5 64.5q-147 0 -241.5 -86t-110.5 -233h-139q10 98 52 181t108.5 142.5t154.5 92t191 32.5q180 0 284.5 -96t104.5 -266q0 -113 -45 -195 t-112 -140.5t-143.5 -96t-140.5 -62.5q-104 -47 -174.5 -92t-115.5 -98.5t-68 -122t-31 -160.5h738l-15 -127h-895z" />
<glyph unicode="3" horiz-adv-x="1124" d="M113 426h139q-8 -74 11.5 -132t60.5 -100t101 -65t136 -23q80 0 144.5 25t110.5 68t71.5 100t25.5 125q0 111 -72.5 184.5t-222.5 73.5h-108l14 125h109q80 0 141.5 22.5t102.5 60.5t61 90t20 112q0 117 -73.5 176t-200.5 59q-78 0 -137.5 -21.5t-100 -60.5t-64.5 -90 t-30 -111h-139q10 94 50 170t104.5 130.5t147.5 83t179 28.5q88 0 163 -24.5t128 -70.5t83 -111.5t30 -147.5q0 -135 -77 -230.5t-210 -128.5q113 -29 178.5 -108.5t65.5 -206.5q0 -98 -41 -181t-110.5 -142.5t-163 -93.5t-199.5 -34q-100 0 -184.5 31t-141.5 89.5 t-85 141.5t-17 187z" />
<glyph unicode="4" horiz-adv-x="1118" d="M195 492l98 942h139l-84 -816h406l47 453h139l-47 -453h233l-14 -126h-233l-52 -492h-139l51 492h-544z" />
<glyph unicode="5" horiz-adv-x="1208" d="M188 453h142q-8 -72 9 -134.5t55 -109.5t98.5 -75t138.5 -28q82 0 150.5 31t118.5 83t78 121t28 144q0 63 -20.5 121t-59.5 100t-96.5 66.5t-131.5 24.5q-98 0 -179 -46t-134 -141h-147l86 824h819l-13 -127h-690l-59 -559q53 84 152.5 129t207.5 45q96 0 171 -33 t127.5 -89.5t80 -133t27.5 -162.5q0 -106 -39 -201.5t-109.5 -168.5t-168 -115t-212.5 -42q-111 0 -194.5 38t-140 103.5t-81 151.5t-14.5 183z" />
<glyph unicode="6" horiz-adv-x="1112" d="M121 408q0 92 29.5 168.5t80.5 148.5l514 709h164l-411 -551q29 25 70.5 35t90.5 10q96 0 174 -34t133.5 -92.5t85 -137t29.5 -166.5q0 -104 -40 -198.5t-110.5 -166.5t-167.5 -114t-210 -42q-102 0 -182 35t-135.5 93.5t-85 136t-29.5 166.5zM260 420q0 -66 20.5 -122 t59.5 -99t96 -68t129 -25q82 0 150.5 31t119 83t78 121t27.5 144q0 63 -20.5 121t-59.5 101t-96 68.5t-129 25.5q-82 0 -150.5 -31t-119 -83t-78 -121.5t-27.5 -145.5z" />
<glyph unicode="7" horiz-adv-x="929" d="M129 0l748 1307h-662l14 127h863l-813 -1434h-150z" />
<glyph unicode="8" horiz-adv-x="1169" d="M152 356q0 66 19 128.5t58 114.5t96.5 91t131.5 55q-109 31 -157 110t-48 177q0 88 35 166t98.5 135.5t152.5 90t197 32.5q98 0 174 -27.5t128.5 -75.5t79 -112.5t26.5 -140.5q0 -59 -16.5 -114.5t-50.5 -102.5t-86 -83t-122 -55q61 -14 105.5 -46.5t72 -75.5t41 -93.5 t13.5 -101.5q0 -90 -37 -172t-104.5 -143.5t-162.5 -98.5t-212 -37q-102 0 -183.5 29t-136.5 80t-83.5 120.5t-28.5 149.5zM291 369q0 -117 81 -190t224 -73q82 0 149.5 25t114.5 68t74 99t27 122q0 55 -19.5 102t-58.5 82t-96.5 55.5t-133.5 20.5q-82 0 -148.5 -24.5 t-114.5 -66.5t-73.5 -99.5t-25.5 -120.5zM393 1034q0 -104 71 -171.5t206 -67.5q76 0 137 22.5t104 61.5t66.5 92t23.5 112q0 104 -71.5 174t-206.5 70q-74 0 -134.5 -22.5t-104.5 -62.5t-67.5 -93t-23.5 -115z" />
<glyph unicode="9" horiz-adv-x="1112" d="M182 936q0 104 40 198.5t110.5 166t167 113.5t211.5 42q102 0 182 -35t135 -93t85 -136t30 -164q0 -92 -31 -170t-82 -149l-514 -709h-162l410 551q-45 -45 -148 -45q-96 0 -176 32.5t-137 90t-89 136.5t-32 171zM322 948q0 -66 20 -123t60 -100t97.5 -67.5t129.5 -24.5 q82 0 150.5 30.5t118.5 83t78 122t28 145.5q0 63 -20.5 120.5t-59.5 100.5t-96.5 67.5t-129.5 24.5q-82 0 -150.5 -30.5t-118.5 -83t-78.5 -121t-28.5 -144.5z" />
<glyph unicode=":" horiz-adv-x="471" d="M123 100q0 55 41 95.5t94 40.5q49 0 81 -33t32 -80q0 -55 -41 -94t-97 -39q-49 0 -79.5 31.5t-30.5 78.5zM197 795q0 55 41 95t94 40q49 0 80.5 -33t31.5 -80q0 -55 -42 -94t-97 -39q-47 0 -77.5 32t-30.5 79z" />
<glyph unicode=";" horiz-adv-x="481" d="M102 -238l9 74q119 0 153 84q16 29 18.5 49.5t4.5 36.5q-20 -16 -56 -16q-49 0 -78.5 31.5t-29.5 78.5q0 55 41 95.5t104 40.5q66 0 102 -49.5t36 -141.5q0 -139 -81 -211t-223 -72zM197 797q0 55 41 95t94 40q49 0 80.5 -33t31.5 -80q0 -55 -42 -94t-95 -39 q-49 0 -79.5 32t-30.5 79z" />
<glyph unicode="&#x3c;" d="M119 530l10 101l1079 379l-14 -129l-872 -299l808 -301l-12 -129z" />
<glyph unicode="=" d="M207 348l12 121h828l-13 -121h-827zM244 692l12 121h827l-12 -121h-827z" />
<glyph unicode="&#x3e;" d="M82 152l14 129l873 301l-811 299l14 129l999 -379l-12 -101z" />
<glyph unicode="?" horiz-adv-x="1017" d="M152 1010q10 100 52 183t108.5 141.5t154.5 91t190 32.5q178 0 285 -93t107 -259q0 -90 -31 -156.5t-74 -114t-88 -78t-74 -48.5q-51 -33 -89 -60.5t-63.5 -61.5t-41 -82t-23.5 -120h-135q8 78 26.5 136.5t47 102.5t68.5 79.5t96 68.5q33 20 74.5 47t78.5 66t61.5 91 t24.5 122q0 115 -68.5 174t-189.5 59q-147 0 -244.5 -84t-113.5 -237h-139zM342 92q0 57 41 98t98 41q51 0 83 -33.5t32 -80.5q0 -57 -42 -98.5t-99 -41.5q-51 0 -82 34t-31 81z" />
<glyph unicode="@" horiz-adv-x="1796" d="M104 358q0 190 72 354.5t202 286t310 190t397 68.5q162 0 293 -41.5t223.5 -131t141.5 -225.5t49 -327q0 -113 -19.5 -225t-64.5 -203.5t-117.5 -147.5t-179.5 -56q-106 0 -161.5 59t-59.5 166l8 70q-49 -86 -139 -139.5t-203 -53.5q-84 0 -152.5 30.5t-116.5 83t-75 121 t-27 146.5q0 92 36 175t97.5 146.5t144.5 101.5t179 38q117 0 194.5 -53.5t108.5 -139.5l19 174h112l-65 -620q-10 -100 24.5 -149.5t96.5 -49.5q63 0 109 46t77 121t45 168t14 185q0 166 -43 284t-121.5 193.5t-191.5 111.5t-252 36q-188 0 -345 -60.5t-269.5 -166 t-174 -247.5t-61.5 -308q0 -135 43 -256t131 -212t221.5 -145.5t313.5 -54.5q98 0 227 22.5t260 92.5l37 -92q-147 -78 -287.5 -104t-253.5 -26q-207 0 -358.5 62.5t-250.5 168t-148.5 244t-49.5 289.5zM600 391q0 -57 18.5 -109.5t54.5 -91t88 -61.5t120 -23q74 0 136 28 t108 76t72 110.5t26 132.5q0 59 -19.5 111t-55.5 91t-88 61.5t-118 22.5q-74 0 -136.5 -28.5t-108.5 -75.5t-71.5 -110.5t-25.5 -133.5z" />
<glyph unicode="A" horiz-adv-x="1118" d="M12 0l645 1434h107l342 -1434h-148l-61 256h-623l-114 -256h-148zM332 383h536l-182 827z" />
<glyph unicode="B" horiz-adv-x="1193" d="M170 0l152 1434h489q102 0 174 -31t116 -80t63.5 -109.5t19.5 -121.5q0 -74 -24.5 -136.5t-65.5 -109.5t-94.5 -79t-110.5 -44q41 -4 83 -27.5t75.5 -63.5t55 -93.5t21.5 -118.5q0 -70 -27.5 -143.5t-84 -135t-144.5 -101.5t-209 -40h-489zM324 127h356q76 0 132 25.5 t94 66.5t57.5 91t19.5 102q0 43 -14.5 87t-45 79.5t-75.5 57t-107 21.5h-362zM391 784h357q74 0 129 27t92 68t55 92t18 100q0 43 -14 85t-44 76t-77 54.5t-110 20.5h-351z" />
<glyph unicode="C" horiz-adv-x="1587" d="M160 647q0 156 57 303.5t163.5 262t258.5 183t342 68.5q145 0 257 -41t189.5 -110.5t121.5 -163.5t53 -199h-146q-12 82 -48 154t-97.5 123t-146.5 80.5t-193 29.5q-154 0 -278 -57t-210 -152.5t-133 -218.5t-47 -252q0 -115 37 -217t107.5 -179t172 -121t230.5 -44 q188 0 330.5 91.5t212.5 234.5h153q-39 -96 -107.5 -179t-160.5 -143.5t-206 -95.5t-241 -35q-160 0 -284.5 54.5t-210.5 147.5t-131 216t-45 260z" />
<glyph unicode="D" horiz-adv-x="1421" d="M170 0l152 1434h419q166 0 291 -55.5t210 -145.5t128 -208t43 -243q0 -145 -57.5 -285.5t-164 -251t-259 -178t-342.5 -67.5h-420zM324 127h280q154 0 277 55.5t209 146.5t132 206.5t46 236.5q0 102 -35 198.5t-102.5 171.5t-169 120t-234.5 45h-281z" />
<glyph unicode="E" horiz-adv-x="1112" d="M170 0l152 1434h782l-14 -127h-644l-55 -531h643l-14 -127h-643l-53 -522h643l-15 -127h-782z" />
<glyph unicode="F" horiz-adv-x="1101" d="M170 0l152 1434h782l-14 -127h-644l-59 -568h643l-14 -127h-643l-64 -612h-139z" />
<glyph unicode="G" horiz-adv-x="1705" d="M158 637q0 160 59 309.5t165.5 264t256 184t330.5 69.5q119 0 216 -30.5t169.5 -85t115.5 -127t54 -158.5h-144q-10 57 -45 107.5t-90 87t-129 58t-162 21.5q-145 0 -266 -57t-207 -153.5t-133 -220.5t-47 -255q0 -109 33 -209t100.5 -177t170 -123t241.5 -46 q117 0 211 34t163.5 92.5t115.5 139t69 175.5h-401l14 127h700l-14 -127h-152q-29 -125 -91 -229.5t-154.5 -179.5t-213 -117t-264.5 -42q-170 0 -295.5 55.5t-208.5 147.5t-125 213t-42 252z" />
<glyph unicode="H" horiz-adv-x="1357" d="M170 0l152 1434h139l-70 -658h737l70 658h141l-151 -1434h-141l67 649h-737l-68 -649h-139z" />
<glyph unicode="I" horiz-adv-x="483" d="M170 0l152 1434h143l-152 -1434h-143z" />
<glyph unicode="J" horiz-adv-x="1097" d="M78 444h139q-2 -25 -2 -49q0 -54 13 -99q18 -65 58 -109t97 -67.5t125 -23.5q141 0 234.5 93.5t109.5 252.5l104 992h142l-105 -992q-10 -104 -51 -191t-106.5 -149.5t-152.5 -97.5t-189 -35t-184.5 35t-137.5 97.5t-80 150.5q-17 62 -17 133q0 29 3 59z" />
<glyph unicode="K" horiz-adv-x="1175" d="M170 0l152 1434h139l-72 -674l739 674h181l-781 -717l629 -717h-180l-598 672l-70 -672h-139z" />
<glyph unicode="L" horiz-adv-x="864" d="M170 0l152 1434h139l-137 -1307h493l-14 -127h-633z" />
<glyph unicode="M" horiz-adv-x="1658" d="M170 0l152 1434h135l395 -1223l653 1223h135l-151 -1434h-139l116 1108l-581 -1108h-111l-348 1108l-117 -1108h-139z" />
<glyph unicode="N" horiz-adv-x="1355" d="M170 0l152 1434h155l592 -1192l127 1192h141l-151 -1434h-156l-596 1192l-125 -1192h-139z" />
<glyph unicode="O" horiz-adv-x="1650" d="M160 645q0 156 59.5 304.5t166 262t256 183t331.5 69.5q162 0 287.5 -55t209.5 -149.5t128 -216t44 -255.5q0 -158 -59 -305t-165.5 -260.5t-257.5 -183.5t-331 -70q-164 0 -288.5 55.5t-208.5 149.5t-128 216t-44 255zM305 655q0 -111 35 -211t102.5 -178t168 -124 t229.5 -46q145 0 266 57.5t208 152.5t135 218t48 254q0 111 -35 211.5t-102.5 178t-167.5 123.5t-231 46q-145 0 -266.5 -57t-207.5 -152.5t-134 -218.5t-48 -254z" />
<glyph unicode="P" horiz-adv-x="1220" d="M170 0l152 1434h493q100 0 181 -35t136.5 -93.5t85 -137t29.5 -167.5q0 -102 -40 -196t-110.5 -166t-168 -114t-213.5 -42h-355l-51 -483h-139zM373 610h354q84 0 153.5 31t119 84t77 121.5t27.5 146.5q0 63 -20.5 120.5t-59.5 100.5t-95.5 68t-127.5 25h-355z" />
<glyph unicode="Q" horiz-adv-x="1650" d="M160 647q0 156 59.5 303.5t167 261t257 183t331.5 69.5q162 0 286.5 -56t209.5 -149.5t128 -217.5t43 -259q0 -150 -51 -282.5t-140 -237t-211 -175.5t-265 -95l112 -185l-131 -61l-135 223q-162 0 -285.5 57.5t-206.5 151.5t-126 216t-43 253zM305 655q0 -111 35 -211 t102.5 -178t168 -124t229.5 -46q145 0 266 57.5t208 152.5t135 218t48 254q0 111 -35 211.5t-102.5 178t-167.5 123.5t-231 46q-145 0 -266.5 -57t-207.5 -152.5t-134 -218.5t-48 -254z" />
<glyph unicode="R" horiz-adv-x="1232" d="M170 0l152 1434h493q100 0 181 -35t136.5 -93.5t85 -136t29.5 -165.5q0 -86 -27.5 -166t-78.5 -146.5t-123 -115t-158 -70.5l268 -506h-161l-254 483h-353l-51 -483h-139zM373 610h354q84 0 153.5 31t119 84t77 121.5t27.5 146.5q0 63 -20.5 120.5t-59.5 100.5t-95.5 68 t-127.5 25h-355z" />
<glyph unicode="S" horiz-adv-x="1171" d="M143 444h140q-2 -24 -2 -47q0 -131 79 -209q93 -92 258 -92q78 0 143.5 21.5t114 59.5t75 93.5t26.5 122.5q0 68 -24.5 112t-65.5 73.5t-92.5 48t-106.5 32.5q-84 25 -160.5 52.5t-136 68.5t-94.5 103.5t-35 156.5t36 172t100.5 134.5t152.5 87t194 30.5t186.5 -30.5 t132.5 -88t74 -136.5q17 -58 17 -126q0 -24 -2 -49h-139q2 20 2 39q0 45 -10 84q-14 55 -48 95t-89.5 62.5t-135.5 22.5q-147 0 -238.5 -75.5t-91.5 -198.5q0 -63 25 -105.5t64.5 -71t92 -48t109.5 -33.5q80 -23 156 -50.5t136.5 -70.5t96 -108.5t35.5 -163.5 q0 -102 -40 -183.5t-110.5 -139.5t-164.5 -89t-205 -31q-119 0 -209 36t-148.5 98.5t-82.5 149.5q-17 62 -18 132q0 29 3 59z" />
<glyph unicode="T" horiz-adv-x="970" d="M166 1307l14 127h914l-15 -127h-389l-137 -1307h-139l137 1307h-385z" />
<glyph unicode="U" horiz-adv-x="1265" d="M197 451l102 983h139l-102 -983q-3 -23 -2 -45q0 -48 11 -92q17 -64 57 -112t101.5 -77t139.5 -29t144.5 29t116.5 77t81 112.5t39 136.5l102 983h140l-103 -983q-10 -98 -53 -185.5t-112.5 -153t-163 -104.5t-203.5 -39q-109 0 -194 38t-142 103.5t-83 152.5 q-18 61 -18 129q0 29 3 59z" />
<glyph unicode="V" horiz-adv-x="1140" d="M162 1434h147l287 -1209l539 1209h147l-659 -1434h-105z" />
<glyph unicode="W" horiz-adv-x="1937" d="M164 1434h147l264 -1198l490 1198h111l237 -1198l516 1198h148l-637 -1434h-109l-235 1196l-490 -1196h-108z" />
<glyph unicode="X" horiz-adv-x="1093" d="M23 0l520 717l-369 717h158l303 -596l430 596h160l-523 -717l371 -717h-160l-305 594l-428 -594h-157z" />
<glyph unicode="Y" d="M170 1434h162l379 -723l446 723h154l-883 -1434h-154l351 567z" />
<glyph unicode="Z" horiz-adv-x="1130" d="M31 0l985 1307h-805l14 127h1043l-985 -1307h866l-14 -127h-1104z" />
<glyph unicode="[" horiz-adv-x="647" d="M119 -479l221 2107h393l-12 -123h-260l-197 -1863h260l-12 -121h-393z" />
<glyph unicode="\" horiz-adv-x="860" d="M147 1583l127 53l564 -1732l-127 -51z" />
<glyph unicode="]" horiz-adv-x="647" d="M33 -479l12 121h260l197 1863h-260l12 121h393l-221 -2105h-393z" />
<glyph unicode="^" horiz-adv-x="1286" d="M193 662l559 874h100l381 -874h-150l-299 708l-444 -708h-147z" />
<glyph unicode="_" horiz-adv-x="1146" d="M41 -201l10 99h1024l-10 -99h-1024z" />
<glyph unicode="`" horiz-adv-x="858" d="M268 1384l76 107l481 -281l-75 -106z" />
<glyph unicode="a" horiz-adv-x="1212" d="M133 410q0 104 40 197t109.5 165t164 114t202.5 42q135 0 218 -60.5t118 -152.5l21 192h133l-97 -907h-133l21 190q-53 -92 -152.5 -152.5t-228.5 -60.5q-94 0 -171 35t-131 93.5t-84 137.5t-30 167zM266 420q0 -66 20.5 -124t60.5 -101t98.5 -69t132.5 -26 q82 0 152.5 32t120.5 85t78.5 123t28.5 147q0 66 -21.5 124.5t-61 101.5t-97 68.5t-131.5 25.5q-82 0 -151.5 -32t-120.5 -85t-80 -122.5t-29 -147.5z" />
<glyph unicode="b" horiz-adv-x="1214" d="M170 0l152 1434h133l-76 -719q53 98 154.5 155.5t226.5 57.5q94 0 171 -34t131 -92.5t84 -137t30 -166.5q0 -104 -40 -198.5t-109 -166.5t-163 -114t-202 -42q-135 0 -220.5 61.5t-117.5 151.5l-21 -190h-133zM348 420q0 -66 21.5 -124t61.5 -101t98.5 -69t132.5 -26 q82 0 151.5 32t120.5 85t78.5 123t27.5 147q0 66 -20.5 124.5t-60 101.5t-98 68.5t-132.5 25.5q-84 0 -153.5 -32t-119.5 -85t-79 -122.5t-29 -147.5z" />
<glyph unicode="c" horiz-adv-x="1073" d="M139 406q0 100 34 194t99.5 168t160.5 118t220 44q106 0 179 -32t118 -83q44 -51 64 -113q18 -57 18 -115v-12h-133q0 45 -13.5 87.5t-44 75t-79.5 52t-119 19.5q-92 0 -160.5 -34t-114.5 -89t-70 -127t-24 -147q0 -63 17.5 -119.5t53.5 -99.5t92.5 -68t135.5 -25 q123 0 197 58.5t104 152.5h134q-18 -72 -57.5 -133t-97.5 -106t-133 -70t-165 -25q-109 0 -186.5 35t-129 94.5t-76 137.5t-24.5 162z" />
<glyph unicode="d" horiz-adv-x="1212" d="M133 410q0 104 40 197t109.5 165t164 114t202.5 42q135 0 218 -60.5t118 -152.5l76 719h133l-152 -1434h-133l21 190q-53 -92 -152.5 -152.5t-228.5 -60.5q-94 0 -171 35t-131 93.5t-84 137.5t-30 167zM266 420q0 -66 20.5 -124t60.5 -101t98.5 -69t132.5 -26 q82 0 152.5 32t120.5 85t78.5 123t28.5 147q0 66 -21.5 124.5t-61 101.5t-97 68.5t-131.5 25.5q-82 0 -151.5 -32t-120.5 -85t-80 -122.5t-29 -147.5z" />
<glyph unicode="e" horiz-adv-x="1062" d="M139 403q0 111 35 206.5t99.5 166t154.5 111.5t199 41q90 0 162.5 -29t123 -79t78 -118.5t27.5 -150.5q0 -39 -5 -66.5t-14 -60.5h-727q-1 -16 -1 -31q1 -45 9 -89q12 -60 44 -106t88.5 -75t142.5 -29q117 0 186.5 49.5t100.5 116.5h135q-18 -55 -56 -106.5t-93.5 -90 t-128 -62.5t-158.5 -24q-102 0 -178 34t-125.5 91.5t-74 135t-24.5 165.5zM287 528h600q2 18 2 35q-1 47 -13 87q-16 54 -52 92t-89.5 59.5t-116.5 21.5q-125 0 -218 -76.5t-113 -218.5z" />
<glyph unicode="f" horiz-adv-x="686" d="M129 793l12 114h207l21 203q12 113 47 179.5t81 101t98 45t97 10.5q47 0 76 -7t49 -18l-12 -114q-23 10 -47.5 14t-61.5 4q-31 0 -61.5 -5t-57 -25.5t-46 -61.5t-27.5 -111l-23 -215h283l-12 -114h-283l-84 -793h-133l84 793h-207z" />
<glyph unicode="g" horiz-adv-x="1208" d="M84 -129h135v-15q0 -49 11 -96q14 -53 47.5 -95t93 -66.5t151.5 -24.5q76 0 140.5 19.5t113.5 61.5t82 109.5t43 165.5l29 263q-55 -98 -155.5 -157t-225.5 -59q-94 0 -171 35t-131 93.5t-84 137.5t-30 167q0 104 40 197t108.5 165t163 114t202.5 42q135 0 219 -60.5 t119 -152.5l19 192h133l-103 -977q-14 -129 -57 -220t-110.5 -148.5t-156.5 -83t-194 -25.5q-127 0 -211 34t-134 91t-71 133q-17 64 -17 133q0 13 1 27zM266 420q0 -66 20.5 -124t60.5 -101t98.5 -69t132.5 -26q82 0 152.5 32t120.5 85t78.5 123t28.5 147q0 66 -21.5 124.5 t-61 101.5t-97 68.5t-131.5 25.5q-84 0 -153.5 -32t-119.5 -85t-79 -122.5t-29 -147.5z" />
<glyph unicode="h" horiz-adv-x="1150" d="M170 0l152 1434h133l-78 -723q49 92 143 154.5t230 62.5q88 0 152.5 -30t103.5 -83t49 -123q5 -35 5 -74.5t-5 -85.5l-56 -532h-133l52 494q2 28 2 54q0 37 -4 71q-8 57 -35 99t-74 66.5t-115 24.5q-78 0 -138 -29.5t-102 -79t-68 -111t-32 -124.5l-49 -465h-133z" />
<glyph unicode="i" horiz-adv-x="473" d="M170 0l96 907h133l-96 -907h-133zM246 1251q0 55 41 95t94 40q49 0 81 -32.5t32 -79.5q0 -55 -41 -94t-97 -39q-47 0 -78.5 31.5t-31.5 78.5z" />
<glyph unicode="j" horiz-adv-x="473" d="M-104 -518l12 123q31 -10 51.5 -14.5t38.5 -4.5q68 0 101.5 41t41.5 115l123 1165h133l-125 -1183q-16 -141 -82.5 -204t-164.5 -63q-33 0 -70 6.5t-59 18.5zM246 1251q0 55 42 95t95 40q47 0 79 -32.5t32 -79.5q0 -55 -42 -94t-96 -39q-47 0 -78.5 31.5t-31.5 78.5z" />
<glyph unicode="k" horiz-adv-x="931" d="M170 0l152 1434h133l-101 -953l471 426h174l-497 -454l401 -453h-174l-381 424l-45 -424h-133z" />
<glyph unicode="l" horiz-adv-x="473" d="M170 0l152 1434h133l-152 -1434h-133z" />
<glyph unicode="m" horiz-adv-x="1662" d="M170 0l96 907h133l-22 -198q16 43 45 82.5t68.5 69.5t91 48.5t114.5 18.5q115 0 182.5 -59.5t77.5 -166.5q39 92 125 159t217 67q145 0 217 -92q58 -73 57 -199q0 -32 -3 -66l-60 -571h-135l56 535q3 31 3 58q-1 39 -7 70q-12 52 -37 84.5t-62 47t-80 14.5 q-121 0 -197.5 -94t-93.5 -254l-49 -461h-135l53 510q4 38 4 71q0 41 -6 73q-10 58 -34.5 92t-61.5 48.5t-80 14.5q-123 0 -200.5 -96.5t-94.5 -251.5l-49 -461h-133z" />
<glyph unicode="n" horiz-adv-x="1150" d="M170 0l96 907h133l-22 -196q49 92 143 154.5t230 62.5q88 0 152.5 -30t103.5 -83t49 -123q5 -35 5 -74.5t-5 -85.5l-56 -532h-133l52 494q2 28 2 54q0 37 -4 71q-8 57 -35 99t-74 66.5t-115 24.5q-78 0 -138 -29.5t-102 -79t-68 -111t-32 -124.5l-49 -465h-133z" />
<glyph unicode="o" horiz-adv-x="1130" d="M133 408q0 104 40 198t109.5 166t166 114t210.5 42q102 0 183.5 -34t136.5 -92.5t85 -137t30 -166.5q0 -104 -40 -198.5t-111 -166.5t-167 -114t-211 -42q-102 0 -182 35t-135 93.5t-85 136t-30 166.5zM266 420q0 -66 20.5 -124t60.5 -101t98.5 -69t132.5 -26 q82 0 152.5 32t120.5 85t78.5 123t28.5 147q0 66 -21.5 124.5t-61 101.5t-97 68.5t-131.5 25.5q-82 0 -151.5 -32t-120.5 -85t-80 -122.5t-29 -147.5z" />
<glyph unicode="p" horiz-adv-x="1214" d="M115 -526l151 1433h133l-20 -192q53 98 154.5 155.5t226.5 57.5q94 0 171 -34t131 -92.5t84 -137t30 -166.5q0 -102 -40 -196.5t-109 -166.5t-163 -115t-202 -43q-135 0 -220.5 61.5t-117.5 154.5l-76 -719h-133zM348 420q0 -66 21.5 -124t61.5 -101t98.5 -69t132.5 -26 q82 0 151.5 32t120.5 85t78.5 123t27.5 147q0 66 -20.5 124.5t-60 101.5t-98 68.5t-132.5 25.5q-82 0 -151.5 -32t-120.5 -85t-80 -122.5t-29 -147.5z" />
<glyph unicode="q" horiz-adv-x="1214" d="M135 410q0 104 40 197t109.5 165t164 114t202.5 42q135 0 218 -60.5t118 -152.5l21 192h133l-152 -1433h-133l76 719q-55 -98 -155.5 -157t-225.5 -59q-94 0 -171 35t-131 93.5t-84 137.5t-30 167zM268 420q0 -66 20.5 -124t60.5 -101t98.5 -69t132.5 -26q82 0 152.5 32 t120.5 85t79 123t29 147q0 66 -21.5 124.5t-61.5 101.5t-97.5 68.5t-131.5 25.5q-84 0 -153.5 -32t-119.5 -85t-79 -122.5t-29 -147.5z" />
<glyph unicode="r" horiz-adv-x="722" d="M170 0l96 907h133l-22 -213q51 111 146 168.5t200 57.5q25 0 46.5 -3.5t37.5 -11.5l-12 -123q-25 8 -42.5 10.5t-35.5 2.5q-86 0 -151.5 -32t-111.5 -85t-73 -124t-35 -151l-43 -403h-133z" />
<glyph unicode="s" horiz-adv-x="921" d="M123 307h131q-2 -18 -2 -35q0 -38 10 -67q14 -41 46 -67.5t77 -38t98 -11.5q111 0 173.5 43t62.5 121q0 41 -19.5 65.5t-55.5 42t-88 32t-118 32.5q-55 14 -101 29.5t-80 40t-52.5 60.5t-18.5 91q0 70 29 122t78 88t114.5 54.5t139.5 18.5q78 0 141.5 -20.5t106.5 -59.5 q43 -40 63 -96q14 -39 15 -84q0 -20 -3 -41h-131q2 15 2 29q0 73 -45 114q-53 49 -155 49q-96 0 -159 -43t-63 -121q0 -37 17.5 -60.5t49.5 -39.5t80 -28.5t109 -30.5q55 -14 104.5 -29.5t86.5 -40.5t58.5 -63.5t21.5 -98.5q0 -68 -27.5 -121t-77 -90t-118 -56.5 t-150.5 -19.5q-80 0 -148.5 19.5t-115.5 60.5t-71 103q-17 44 -18 99q0 23 3 48z" />
<glyph unicode="t" horiz-adv-x="673" d="M125 793l12 114h182l35 336h135l-34 -336h262l-12 -114h-263l-49 -463q-4 -37 -4 -66.5t4 -50.5q8 -43 28.5 -65.5t50.5 -29.5t65 -7q29 0 66.5 3t64.5 7l-15 -121q-27 -4 -69.5 -8t-85.5 -4t-91.5 8t-84.5 40q-38 32 -58 96q-13 40 -12 97q0 34 4 74l51 490h-182z" />
<glyph unicode="u" horiz-adv-x="1146" d="M188 375l56 532h135l-51 -493q-3 -29 -3 -56q0 -36 5 -70q8 -58 34.5 -99.5t72.5 -66t114 -24.5q78 0 138.5 30t102.5 79t67.5 110.5t31.5 124.5l49 465h133l-96 -907h-133l20 197q-51 -98 -145 -159t-223 -61q-88 0 -154 31t-104 84q-40 53 -50 123q-5 36 -5 77 q0 39 5 83z" />
<glyph unicode="v" horiz-adv-x="962" d="M111 907h145l244 -719l399 719h145l-518 -907h-96z" />
<glyph unicode="w" horiz-adv-x="1464" d="M113 907h143l180 -704l326 704h133l176 -704l330 704h143l-446 -907h-97l-190 758l-348 -758h-96z" />
<glyph unicode="x" horiz-adv-x="888" d="M47 0l367 455l-269 452h156l203 -348l276 348h154l-365 -452l273 -455h-156l-205 352l-278 -352h-156z" />
<glyph unicode="y" horiz-adv-x="1163" d="M139 -133h135q-1 -17 -1 -33q0 -131 59 -194q65 -72 207 -72q66 0 120 16.5t94 55t65.5 100t35.5 154.5l33 303q-49 -92 -139.5 -156t-233.5 -64q-176 0 -258 111q-35 47 -46 114q-5 33 -5 76q0 47 6 107l55 522h135l-51 -483q-4 -37 -4 -71q0 -99 35 -165 q47 -90 186 -90q82 0 143.5 30t104.5 79t67.5 110.5t30.5 124.5l50 465h131l-107 -1013q-25 -233 -142.5 -337t-320.5 -104q-388 0 -388 353q0 29 3 61z" />
<glyph unicode="z" horiz-adv-x="882" d="M53 0l625 786h-522l14 121h754l-627 -786h545l-13 -121h-776z" />
<glyph unicode="{" horiz-adv-x="780" d="M164 494l12 112q25 0 58.5 10.5t64.5 33t54.5 57t29.5 84.5l59 550q8 72 39 125.5t74 89t95 53t102 17.5h127l-11 -106h-98q-80 0 -132 -55.5t-63 -141.5l-59 -549q-6 -57 -29.5 -97t-54.5 -65.5t-63.5 -40t-57.5 -20.5q25 -6 55.5 -21.5t55 -43t39 -70.5t8.5 -107 l-51 -485q-10 -86 32 -141.5t121 -55.5h99l-13 -106h-127q-49 0 -97 17.5t-85 52t-56.5 89t-10.5 125.5l51 490q6 53 -10.5 91t-43 61.5t-58.5 35t-56 11.5z" />
<glyph unicode="|" horiz-adv-x="473" d="M127 -479l221 2105h119l-221 -2105h-119z" />
<glyph unicode="}" horiz-adv-x="780" d="M23 -479l10 106h96q80 0 133 55.5t64 141.5l49 485q6 61 28.5 103.5t53 71t64.5 45t63 22.5q-25 6 -55.5 21.5t-55 41t-40 65.5t-9.5 95l57 549q10 86 -30.5 141.5t-120.5 55.5h-97l11 106h125q49 0 97 -17.5t85 -53t56.5 -89t10.5 -125.5l-57 -550q-6 -49 11.5 -84 t44 -57.5t58.5 -33t56 -10.5l-12 -112q-25 0 -58.5 -11.5t-65.5 -35t-55.5 -61.5t-29.5 -91l-51 -490q-8 -72 -39 -126t-75 -88.5t-96 -52t-102 -17.5h-124z" />
<glyph unicode="~" horiz-adv-x="1044" d="M121 479l12 125q53 57 113.5 80t111.5 23q53 0 112.5 -19.5t119.5 -46.5q61 -27 115.5 -50.5t105.5 -23.5q59 0 120.5 35t108.5 76l-12 -123q-53 -53 -115.5 -81t-121.5 -28q-51 0 -104.5 20.5t-119.5 51.5q-51 27 -111.5 47.5t-113.5 20.5q-61 0 -117.5 -30t-103.5 -77z " />
<glyph unicode="&#xa1;" horiz-adv-x="579" d="M164 -528l108 1030h146l-109 -1030h-145zM254 805q0 55 41 95t94 40q49 0 81 -33t32 -80q0 -55 -41 -95t-94 -40q-49 0 -81 33t-32 80z" />
<glyph unicode="&#xa2;" horiz-adv-x="1122" d="M172 524q0 94 30.5 183.5t89 162t142.5 119.5t191 58l22 223h107l-23 -223q92 -8 156.5 -41t103.5 -81t55.5 -107.5t16.5 -121.5h-133q0 45 -13.5 87t-44 75t-80 52.5t-118.5 19.5q-92 0 -161 -34t-115 -89t-69.5 -127t-23.5 -148q0 -63 17.5 -119.5t53.5 -99.5t92 -67.5 t136 -24.5q123 0 196.5 58.5t104.5 152.5h133q-35 -131 -134 -223t-273 -109l-23 -221h-106l22 223q-88 8 -154.5 46t-110.5 95.5t-65.5 130t-21.5 150.5z" />
<glyph unicode="&#xa3;" horiz-adv-x="1220" d="M119 0l12 109q41 45 67.5 107.5t43.5 172.5q4 16 11 63.5t14 102.5t13.5 104.5t8.5 69.5h-139l12 107h139q6 66 10 103.5t5 57t2 25.5t1 10q8 86 49.5 163t108 133t153.5 90t185 34t178 -34t133.5 -94t78 -142t14.5 -178h-142q6 66 -7 124t-48 102t-91.5 69.5 t-133.5 25.5q-127 0 -212 -65.5t-114 -176.5q-4 -14 -8 -41.5t-8 -62.5t-8.5 -72t-6.5 -69h389l-10 -107h-389q-4 -18 -10 -67.5t-12.5 -103.5t-13.5 -101t-9 -62q-16 -104 -36.5 -166.5t-55.5 -103.5h717l-15 -127h-876z" />
<glyph unicode="&#xa4;" horiz-adv-x="1587" d="M246 322l160 145q-33 51 -50.5 115.5t-17.5 132.5q0 96 34 179t95 155l-129 145l94 86l129 -145q63 47 140 72.5t165 25.5q90 0 162 -25.5t125 -70.5l156 141l77 -84l-159 -143q35 -51 53 -117t18 -133q0 -94 -34.5 -180t-98.5 -156l129 -141l-94 -86l-127 141 q-63 -45 -140 -70.5t-167 -25.5q-88 0 -158.5 25.5t-124.5 72.5l-159 -143zM473 723q0 -66 20.5 -124t60.5 -101t97 -69t131 -26q82 0 153 32t121 85t78.5 124t28.5 149q0 66 -21.5 124t-61.5 101t-97 68.5t-131 25.5q-84 0 -152.5 -31.5t-120 -85t-79 -124t-27.5 -148.5z " />
<glyph unicode="&#xa5;" horiz-adv-x="1239" d="M123 1434h162l411 -736l559 736h162l-647 -850h330l-10 -103h-353l-20 -188h352l-10 -107h-352l-21 -186h-127l21 186h-349l11 107h348l20 188h-348l10 103h326z" />
<glyph unicode="&#xa6;" horiz-adv-x="473" d="M127 -479l102 964h119l-102 -964h-119zM246 659l102 967h119l-102 -967h-119z" />
<glyph unicode="&#xa7;" horiz-adv-x="1185" d="M113 4h141q-12 -143 72 -227t252 -84q63 0 122.5 14t103.5 44t70.5 77t26.5 113q0 51 -18.5 89t-57.5 67.5t-101.5 54t-148.5 47.5q-94 27 -170.5 56.5t-131 67t-84 90t-29.5 126.5q0 121 73.5 209t192.5 112q-61 41 -97 106.5t-36 151.5q0 92 40 165t106.5 123 t153.5 76.5t183 26.5q102 0 184 -29.5t136.5 -85t80 -131t17.5 -167.5h-141q6 61 -9.5 114.5t-51.5 93t-92 63.5t-136 24q-66 0 -125 -16.5t-104.5 -49.5t-73 -81t-27.5 -111q0 -61 25.5 -102.5t67.5 -70t96.5 -47t111.5 -34.5q88 -27 165 -55.5t133.5 -66.5t88 -90.5 t31.5 -125.5q0 -63 -22.5 -117.5t-59.5 -97.5t-83 -72t-93 -39q74 -43 111.5 -105.5t37.5 -154.5q0 -94 -38.5 -166t-105 -120t-154 -72.5t-183.5 -24.5q-111 0 -199 30.5t-147 88t-87 137.5t-17 176zM305 557q0 -74 50.5 -117t154.5 -78q12 -6 49 -18t79 -25.5t80 -24.5 t52 -15q45 2 88 21t77 52t54.5 76t20.5 92q0 76 -53.5 115t-157.5 76q-10 6 -42 17t-70 23.5t-75 23.5t-57 18q-59 -2 -105.5 -22.5t-79 -53.5t-49 -75t-16.5 -85z" />
<glyph unicode="&#xa8;" horiz-adv-x="1060" d="M307 1319q0 53 38 91t91 38q47 0 79 -32t32 -77q0 -53 -40 -91t-93 -38q-47 0 -77 31t-30 78zM778 1319q0 53 38 91t91 38q47 0 79 -32t32 -77q0 -53 -40 -91t-93 -38q-47 0 -77 31t-30 78z" />
<glyph unicode="&#xa9;" horiz-adv-x="1652" d="M162 643q0 158 59.5 306.5t167 264t257 185t329.5 69.5q162 0 286.5 -56t208.5 -150.5t128 -217t44 -256.5q0 -158 -59 -306t-165.5 -263t-257.5 -184.5t-331 -69.5q-162 0 -286.5 56.5t-208.5 149.5t-128 216t-44 256zM274 651q0 -117 37 -224.5t109 -189t177.5 -131 t242.5 -49.5q154 0 280.5 61.5t218 163t141.5 232.5t50 270q0 117 -37 224.5t-108.5 188.5t-176 130t-241.5 49q-154 0 -282 -61.5t-219 -162.5t-141.5 -232.5t-50.5 -268.5zM477 676q0 90 33 175t94.5 151.5t149.5 106.5t196 40q160 0 254 -82t105 -215h-97 q-16 92 -85.5 151.5t-186.5 59.5q-84 0 -152.5 -32t-115.5 -85t-73 -121.5t-26 -140.5q0 -63 20.5 -119.5t59.5 -99.5t95.5 -67.5t128.5 -24.5q106 0 183 50t116 122h100q-23 -55 -61.5 -102.5t-92 -83t-119 -55t-139.5 -19.5q-92 0 -163.5 30.5t-122 85t-76 125 t-25.5 150.5z" />
<glyph unicode="&#xaa;" horiz-adv-x="1212" d="M133 410q0 104 40 197t109.5 165t164 114t202.5 42q135 0 218 -60.5t118 -152.5l21 192h133l-97 -907h-133l21 190q-53 -92 -152.5 -152.5t-228.5 -60.5q-94 0 -171 35t-131 93.5t-84 137.5t-30 167zM266 420q0 -66 20.5 -124t60.5 -101t98.5 -69t132.5 -26 q82 0 152.5 32t120.5 85t78.5 123t28.5 147q0 66 -21.5 124.5t-61 101.5t-97 68.5t-131.5 25.5q-82 0 -151.5 -32t-120.5 -85t-80 -122.5t-29 -147.5z" />
<glyph unicode="&#xab;" horiz-adv-x="966" d="M139 553l8 86l439 348l-15 -137l-317 -254l264 -254l-14 -137zM541 553l8 86l438 348l-14 -137l-318 -254l265 -254l-15 -137z" />
<glyph unicode="&#xac;" d="M233 606l13 119h827l-43 -418h-133l31 299h-695z" />
<glyph unicode="&#xad;" horiz-adv-x="602" d="M121 563l4 41h479l-4 -41h-479z" />
<glyph unicode="&#xae;" horiz-adv-x="1662" d="M162 643q0 158 59.5 306.5t168 264t259 185t332.5 69.5q164 0 289 -56t210 -149.5t129 -216t44 -255.5q0 -158 -59.5 -307.5t-167 -264.5t-258 -184.5t-332.5 -69.5q-164 0 -290 56.5t-211 149.5t-129 216t-44 256zM274 651q0 -117 37 -224.5t109 -189t177.5 -131 t244.5 -49.5q156 0 283.5 61.5t220 163t143.5 231.5t51 269q0 117 -37 224.5t-108.5 189.5t-178 131t-243.5 49q-156 0 -284 -61.5t-220 -162.5t-143.5 -231t-51.5 -270zM610 326l88 833h310q57 0 103 -20.5t78 -54t48 -80t16 -97.5q0 -100 -60 -180t-161 -106l156 -295 h-113l-149 282h-185l-30 -282h-101zM750 698h198q90 0 145.5 59.5t55.5 141.5q0 72 -42 121t-120 49h-199z" />
<glyph unicode="&#xaf;" horiz-adv-x="1083" d="M332 1481l12 121h733l-12 -121h-733z" />
<glyph unicode="&#xb0;" horiz-adv-x="677" d="M166 1149q0 66 26.5 124t70.5 101t102.5 68.5t123.5 25.5q57 0 106.5 -20.5t85.5 -56t55.5 -85t19.5 -104.5q0 -66 -27 -124t-71 -101t-103 -68.5t-123 -25.5q-59 0 -107.5 20.5t-84 56t-55 85t-19.5 104.5zM266 1157q0 -74 49.5 -125t126.5 -51q43 0 81 16.5t66.5 45 t46 67.5t17.5 82q0 72 -48 125t-126 53q-43 0 -81 -16.5t-67.5 -46t-47 -68.5t-17.5 -82z" />
<glyph unicode="&#xb1;" d="M190 98l13 119h807l-13 -119h-807zM264 795l12 120h336l37 347h133l-37 -347h338l-12 -120h-338l-37 -342h-133l37 342h-336z" />
<glyph unicode="&#xb2;" horiz-adv-x="743" d="M180 645q10 98 33 162.5t56.5 107.5t78.5 71t103 54q43 18 79.5 37t63.5 41.5t42 51t15 67.5q0 59 -33.5 90t-93.5 31q-72 0 -117 -42t-55 -118h-112q14 115 93 182.5t199 67.5q102 0 166 -52.5t64 -152.5q0 -59 -22.5 -102t-57.5 -75t-77 -54.5t-81 -40.5 q-53 -25 -90 -46.5t-60.5 -46t-35.5 -57.5t-19 -82h394l-11 -94h-522z" />
<glyph unicode="&#xb3;" horiz-adv-x="763" d="M193 885h112q-8 -74 32 -117t114 -43q80 0 126 46t46 112q0 55 -36 91t-108 36h-67l10 90h67q80 0 120 41t40 100q0 57 -34.5 87t-96.5 30q-74 0 -113.5 -39t-46.5 -105h-112q10 102 82.5 168t195.5 66q104 0 171 -51t67 -144q0 -78 -44 -130t-112 -68q59 -16 94 -60.5 t35 -115.5q0 -57 -23.5 -103.5t-63.5 -78t-93 -49t-113 -17.5q-127 0 -194.5 70.5t-54.5 183.5z" />
<glyph unicode="&#xb4;" horiz-adv-x="858" d="M211 1210l539 281l55 -107l-539 -280z" />
<glyph unicode="&#xb5;" d="M113 -526l151 1433h133l-51 -493q-6 -68 2 -125.5t35 -99.5t74 -66.5t114 -24.5q78 0 138.5 30t102.5 79t67.5 110.5t31.5 124.5l50 465h133l-97 -907h-133l21 197q-47 -92 -142.5 -156t-222.5 -64q-145 0 -209 97l-63 -600h-135z" />
<glyph unicode="&#xb6;" horiz-adv-x="1308" d="M139 1036q0 94 28 163t74 117t105.5 77.5t120.5 46t120.5 22.5t106.5 6h627l-12 -114h-109l-174 -1657h-127l174 1655h-332l-174 -1655h-127l103 977q-88 0 -162 20.5t-128 64.5t-84 112.5t-30 164.5z" />
<glyph unicode="&#xb7;" horiz-adv-x="471" d="M178 629q0 55 41 94t94 39q49 0 81 -32t32 -79q0 -55 -41 -94t-96 -39q-47 0 -79 32t-32 79z" />
<glyph unicode="&#xb8;" horiz-adv-x="827" d="M205 -297h86q0 -47 26.5 -75.5t73.5 -28.5q53 0 88 36.5t35 88.5q0 43 -26.5 71.5t-77.5 28.5q-23 0 -48.5 -11.5t-50.5 -54.5h-75l24 242h92l-16 -158q18 27 47 40.5t63 13.5q63 0 109.5 -44.5t46.5 -117.5q0 -41 -15.5 -79t-43 -67.5t-66.5 -48t-88 -18.5 q-31 0 -63.5 9t-59 29.5t-44 55.5t-17.5 88z" />
<glyph unicode="&#xb9;" horiz-adv-x="518" d="M223 1217l8 81q53 0 88 8.5t55.5 25t30 42t13.5 60.5h102l-82 -789h-114l59 572h-160z" />
<glyph unicode="&#xba;" horiz-adv-x="1130" d="M133 408q0 104 40 198t109.5 166t166 114t210.5 42q102 0 183.5 -34t136.5 -92.5t85 -137t30 -166.5q0 -104 -40 -198.5t-111 -166.5t-167 -114t-211 -42q-102 0 -182 35t-135 93.5t-85 136t-30 166.5zM266 420q0 -66 20.5 -124t60.5 -101t98.5 -69t132.5 -26 q82 0 152.5 32t120.5 85t78.5 123t28.5 147q0 66 -21.5 124.5t-61 101.5t-97 68.5t-131.5 25.5q-82 0 -151.5 -32t-120.5 -85t-80 -122.5t-29 -147.5z" />
<glyph unicode="&#xbb;" horiz-adv-x="966" d="M104 205l15 137l317 254l-264 254l14 137l365 -348l-8 -86zM506 205l14 137l318 254l-265 254l15 137l364 -348l-8 -86z" />
<glyph unicode="&#xbc;" horiz-adv-x="1808" d="M252 1217l8 81q53 0 88 8.5t55.5 25t29.5 42t13 60.5h101l-82 -789h-115l60 572h-158zM317 -70l994 1635l102 -60l-993 -1634zM1141 254l55 534h113l-45 -436h198l25 238h112l-24 -238h119l-11 -98h-118l-27 -254h-113l27 254h-311z" />
<glyph unicode="&#xbd;" horiz-adv-x="1808" d="M252 1217l8 81q53 0 88 8.5t55.5 25t29.5 42t13 60.5h101l-82 -789h-115l60 572h-158zM317 -70l994 1635l102 -60l-993 -1634zM1112 0q10 98 31.5 162.5t55.5 107.5t79 71t102 54q43 18 80 37t63.5 41.5t42 51t15.5 67.5q0 59 -34 90t-95 31q-72 0 -117 -42t-53 -118 h-113q12 115 92 182.5t201 67.5q102 0 166 -52.5t64 -152.5q0 -59 -21.5 -101t-56.5 -74t-78 -55.5t-84 -41.5q-53 -25 -90 -46.5t-60.5 -46t-36 -57.5t-18.5 -82h393l-8 -94h-520z" />
<glyph unicode="&#xbe;" horiz-adv-x="1808" d="M190 885h115q-8 -74 32 -117t114 -43q78 0 125 45t47 113q0 55 -36 91t-110 36h-65l10 90h65q84 0 123 41t39 100q0 57 -34.5 87t-98.5 30q-74 0 -114 -39t-46 -105h-112q10 98 82.5 166t197.5 68q104 0 170 -51t66 -146q0 -76 -43 -128t-113 -68q59 -16 95 -61.5 t36 -114.5q0 -57 -23.5 -103.5t-63.5 -78t-94 -49t-114 -17.5q-127 0 -194.5 70.5t-55.5 183.5zM354 -70l994 1635l102 -60l-993 -1634zM1141 254l57 534h113l-47 -436h198l27 238h113l-27 -238h119l-11 -98h-118l-27 -254h-113l27 254h-311z" />
<glyph unicode="&#xbf;" horiz-adv-x="1017" d="M63 -199q0 86 29 151.5t71 113t88 79t81 54.5q51 33 89 60.5t63.5 61t41 82t21.5 119.5h135q-8 -78 -26.5 -136t-48 -102t-69.5 -79t-94 -68q-33 -18 -74.5 -46t-78.5 -66.5t-62.5 -92t-25.5 -122.5q0 -115 70.5 -174.5t193.5 -59.5q78 0 140.5 23.5t106.5 66.5 t70.5 102.5t34.5 129.5h142q-10 -102 -53.5 -185.5t-110 -141.5t-154.5 -90t-188 -32q-180 0 -286 94.5t-106 257.5zM516 793q0 55 42 96t97 41q51 0 83 -34t32 -81q0 -57 -41 -98t-96 -41q-51 0 -84 33.5t-33 83.5z" />
<glyph unicode="&#xc0;" horiz-adv-x="1118" d="M12 0l645 1434h107l342 -1434h-148l-61 256h-623l-114 -256h-148zM332 383h536l-182 827zM487 1815l76 108l479 -281l-73 -108z" />
<glyph unicode="&#xc1;" horiz-adv-x="1118" d="M12 0l645 1434h107l342 -1434h-148l-61 256h-623l-114 -256h-148zM332 383h536l-182 827zM444 1620l541 281l51 -107l-538 -281z" />
<glyph unicode="&#xc2;" horiz-adv-x="1118" d="M12 0l645 1434h107l342 -1434h-148l-61 256h-623l-114 -256h-148zM332 383h536l-182 827zM371 1622l391 309l325 -309l-86 -88l-256 248l-303 -248z" />
<glyph unicode="&#xc3;" horiz-adv-x="1118" d="M12 0l645 1434h107l342 -1434h-148l-61 256h-623l-114 -256h-148zM332 383h536l-182 827zM367 1683q53 82 118.5 119t130.5 37q51 0 88 -17.5t67 -37t57.5 -36.5t62.5 -17q47 0 84 31.5t61 76.5l97 -49q-49 -84 -117 -125t-139 -41q-49 0 -86 17.5t-67 37t-58.5 37 t-61.5 17.5q-47 0 -85 -34t-60 -75z" />
<glyph unicode="&#xc4;" horiz-adv-x="1118" d="M12 0l645 1434h107l342 -1434h-148l-61 256h-623l-114 -256h-148zM332 383h536l-182 827zM381 1692q0 55 41 95t94 40q49 0 81 -33t32 -80q0 -55 -42 -94t-95 -39q-49 0 -80 32t-31 79zM852 1692q0 55 40 95t95 40q49 0 81 -33t32 -80q0 -55 -42 -94t-95 -39 q-49 0 -80 32t-31 79z" />
<glyph unicode="&#xc5;" horiz-adv-x="1118" d="M12 0l645 1434h107l342 -1434h-148l-61 256h-623l-114 -256h-148zM332 383h536l-182 827zM492 1726q0 55 23.5 104.5t61 87.5t88 59.5t105.5 21.5q49 0 91 -18.5t73 -49t47 -72.5t16 -90q0 -55 -22.5 -105t-61.5 -87t-88 -59.5t-104 -22.5q-49 0 -91 18.5t-73 50 t-48 73.5t-17 89zM584 1733q0 -59 40 -102.5t103 -43.5q35 0 67.5 14.5t57.5 38t39 55t14 66.5q0 59 -41 103.5t-104 44.5q-35 0 -66.5 -14.5t-56.5 -39t-39 -56.5t-14 -66z" />
<glyph unicode="&#xc6;" horiz-adv-x="1734" d="M4 0l868 1434h850l-14 -127h-643l-55 -531h643l-15 -127h-643l-53 -522h643l-14 -127h-783l27 256h-504l-153 -256h-154zM387 385h442l95 893z" />
<glyph unicode="&#xc7;" horiz-adv-x="1587" d="M160 645q0 158 57 305.5t163.5 262t258.5 183t342 68.5q145 0 257 -41t189.5 -110.5t121.5 -163.5t53 -199h-146q-12 82 -48 154t-97.5 123t-146.5 80.5t-193 29.5q-154 0 -278 -57t-210 -152.5t-133 -218.5t-47 -252q0 -115 37 -217t107.5 -179t172 -121t230.5 -44 q188 0 330.5 91.5t212.5 234.5h153q-45 -96 -103.5 -175t-139 -135.5t-190 -92t-257.5 -46.5q-4 0 -16.5 -1t-16.5 -1l-12 -118q37 47 115 47q66 0 106.5 -42t40.5 -108q0 -39 -16.5 -74.5t-44 -63.5t-65.5 -44.5t-83 -16.5q-27 0 -58.5 7.5t-58 25t-46 48t-21.5 77.5h88 q4 -35 28.5 -57.5t67.5 -22.5q53 0 87 33t34 80q0 37 -23.5 64.5t-70.5 27.5q-29 0 -55.5 -12t-49.5 -47h-75l20 200q-139 16 -245.5 76t-178 150t-109.5 203.5t-38 240.5z" />
<glyph unicode="&#xc8;" horiz-adv-x="1112" d="M170 0l152 1434h782l-14 -127h-644l-55 -531h643l-14 -127h-643l-53 -522h643l-15 -127h-782zM487 1796l78 107l479 -281l-75 -106z" />
<glyph unicode="&#xc9;" horiz-adv-x="1112" d="M170 0l152 1434h782l-14 -127h-644l-55 -531h643l-14 -127h-643l-53 -522h643l-15 -127h-782zM461 1642l540 281l54 -108l-539 -281z" />
<glyph unicode="&#xca;" horiz-adv-x="1112" d="M170 0l152 1434h782l-14 -127h-644l-55 -531h643l-14 -127h-643l-53 -522h643l-15 -127h-782zM383 1622l391 309l328 -309l-86 -88l-256 248l-305 -248z" />
<glyph unicode="&#xcb;" horiz-adv-x="1112" d="M170 0l152 1434h782l-14 -127h-644l-55 -531h643l-14 -127h-643l-53 -522h643l-15 -127h-782zM395 1692q0 55 41 95t94 40q49 0 81 -33t32 -80q0 -55 -42 -94t-95 -39q-49 0 -80 32t-31 79zM866 1692q0 55 40 95t95 40q49 0 81 -33t32 -80q0 -55 -42 -94t-95 -39 q-49 0 -80 32t-31 79z" />
<glyph unicode="&#xcc;" horiz-adv-x="483" d="M143 1794l74 107l481 -281l-73 -107zM170 0l152 1434h143l-152 -1434h-143z" />
<glyph unicode="&#xcd;" horiz-adv-x="483" d="M125 1622l539 281l53 -107l-539 -280zM170 0l149 1434h144l-150 -1434h-143z" />
<glyph unicode="&#xce;" horiz-adv-x="483" d="M53 1622l391 309l326 -309l-88 -88l-254 248l-305 -248zM170 0l149 1434h144l-150 -1434h-143z" />
<glyph unicode="&#xcf;" horiz-adv-x="483" d="M66 1692q0 55 42 95t95 40q47 0 78.5 -33t31.5 -80q0 -55 -42 -94t-95 -39q-47 0 -78.5 32t-31.5 79zM170 0l152 1434h143l-152 -1434h-143zM537 1692q0 55 42 95t95 40q47 0 78.5 -33t31.5 -80q0 -55 -42 -94t-95 -39q-47 0 -78.5 32t-31.5 79z" />
<glyph unicode="&#xd0;" horiz-adv-x="1421" d="M10 666l10 104h230l69 664h420q164 0 290 -55.5t211 -146.5t129 -209t44 -243q0 -145 -57.5 -285.5t-165 -250t-260 -177t-340.5 -67.5h-420l70 666h-230zM322 127h280q154 0 278 55.5t210 146.5t132 205.5t46 235.5q0 104 -35 200.5t-102.5 171.5t-169 120t-234.5 45 h-281l-57 -537h240l-11 -104h-239z" />
<glyph unicode="&#xd1;" horiz-adv-x="1355" d="M170 0l152 1434h155l592 -1192l127 1192h141l-151 -1434h-156l-596 1192l-125 -1192h-139zM477 1683q51 82 118 119t132 37q51 0 87 -17.5t65.5 -37t57 -36.5t62.5 -17q49 0 87 33.5t61 74.5l96 -49q-51 -86 -120.5 -126t-137.5 -40q-49 0 -85 17.5t-65.5 37t-57 37 t-62.5 17.5q-49 0 -86 -34t-60 -75z" />
<glyph unicode="&#xd2;" horiz-adv-x="1650" d="M160 645q0 156 59.5 304.5t166 262t256 183t331.5 69.5q162 0 287.5 -55t209.5 -149.5t128 -216t44 -255.5q0 -158 -59 -305t-165.5 -260.5t-257.5 -183.5t-331 -70q-164 0 -288.5 55.5t-208.5 149.5t-128 216t-44 255zM305 655q0 -111 35 -211t102.5 -178t168 -124 t229.5 -46q145 0 266 57.5t208 152.5t135 218t48 254q0 111 -35 211.5t-102.5 178t-167.5 123.5t-231 46q-145 0 -266.5 -57t-207.5 -152.5t-134 -218.5t-48 -254zM711 1815l73 108l482 -281l-76 -108z" />
<glyph unicode="&#xd3;" horiz-adv-x="1650" d="M160 645q0 156 59.5 304.5t166 262t256 183t331.5 69.5q162 0 287.5 -55t209.5 -149.5t128 -216t44 -255.5q0 -158 -59 -305t-165.5 -260.5t-257.5 -183.5t-331 -70q-164 0 -288.5 55.5t-208.5 149.5t-128 216t-44 255zM305 655q0 -111 35 -211t102.5 -178t168 -124 t229.5 -46q145 0 266 57.5t208 152.5t135 218t48 254q0 111 -35 211.5t-102.5 178t-167.5 123.5t-231 46q-145 0 -266.5 -57t-207.5 -152.5t-134 -218.5t-48 -254zM727 1642l539 281l53 -108l-541 -281z" />
<glyph unicode="&#xd4;" horiz-adv-x="1650" d="M160 645q0 156 59.5 304.5t166 262t256 183t331.5 69.5q162 0 287.5 -55t209.5 -149.5t128 -216t44 -255.5q0 -158 -59 -305t-165.5 -260.5t-257.5 -183.5t-331 -70q-164 0 -288.5 55.5t-208.5 149.5t-128 216t-44 255zM305 655q0 -111 35 -211t102.5 -178t168 -124 t229.5 -46q145 0 266 57.5t208 152.5t135 218t48 254q0 111 -35 211.5t-102.5 178t-167.5 123.5t-231 46q-145 0 -266.5 -57t-207.5 -152.5t-134 -218.5t-48 -254zM639 1622l389 309l330 -309l-88 -88l-256 248l-305 -248z" />
<glyph unicode="&#xd5;" horiz-adv-x="1650" d="M160 645q0 156 59.5 304.5t166 262t256 183t331.5 69.5q162 0 287.5 -55t209.5 -149.5t128 -216t44 -255.5q0 -158 -59 -305t-165.5 -260.5t-257.5 -183.5t-331 -70q-164 0 -288.5 55.5t-208.5 149.5t-128 216t-44 255zM305 655q0 -111 35 -211t102.5 -178t168 -124 t229.5 -46q145 0 266 57.5t208 152.5t135 218t48 254q0 111 -35 211.5t-102.5 178t-167.5 123.5t-231 46q-145 0 -266.5 -57t-207.5 -152.5t-134 -218.5t-48 -254zM635 1683q49 82 115.5 119t134.5 37q51 0 86 -17.5t64.5 -37t56 -36.5t61.5 -17q45 0 85 30.5t65 77.5 l96 -49q-49 -84 -117 -125t-139 -41q-49 0 -86 17.5t-66.5 37t-58.5 37t-64 17.5q-45 0 -81.5 -31t-61.5 -78z" />
<glyph unicode="&#xd6;" horiz-adv-x="1650" d="M160 645q0 156 59.5 304.5t166 262t256 183t331.5 69.5q162 0 287.5 -55t209.5 -149.5t128 -216t44 -255.5q0 -158 -59 -305t-165.5 -260.5t-257.5 -183.5t-331 -70q-164 0 -288.5 55.5t-208.5 149.5t-128 216t-44 255zM305 655q0 -111 35 -211t102.5 -178t168 -124 t229.5 -46q145 0 266 57.5t208 152.5t135 218t48 254q0 111 -35 211.5t-102.5 178t-167.5 123.5t-231 46q-145 0 -266.5 -57t-207.5 -152.5t-134 -218.5t-48 -254zM645 1692q0 55 41 95t94 40q49 0 81 -33t32 -80q0 -55 -41 -94t-96 -39q-47 0 -79 32t-32 79zM1116 1692 q0 55 41 95t94 40q49 0 81 -33t32 -80q0 -55 -41 -94t-96 -39q-47 0 -79 32t-32 79z" />
<glyph unicode="&#xd7;" d="M279 338l274 250l-219 246l96 86l217 -246l277 250l84 -95l-277 -249l221 -246l-96 -86l-217 246l-277 -250z" />
<glyph unicode="&#xd8;" horiz-adv-x="1650" d="M160 645q0 156 58 304.5t166 262t259.5 183t335.5 69.5q125 0 229 -34l84 153l90 -43l-77 -151q82 -41 145 -105.5t106 -143.5t64.5 -169t21.5 -185q0 -156 -59 -303t-166.5 -260.5t-258.5 -183.5t-335 -70q-141 0 -254 43l-88 -166l-94 41l88 168q-78 43 -136 106.5 t-98 140.5t-60.5 165t-20.5 178zM305 659q0 -74 15.5 -143.5t46 -131.5t74.5 -114.5t102 -89.5l602 1129q-82 29 -182 28q-147 0 -268.5 -57t-208.5 -152.5t-134 -217.5t-47 -251zM633 133q88 -37 203 -37q147 0 269 57.5t209 152.5t135 217t48 251q0 154 -66.5 287 t-195.5 205z" />
<glyph unicode="&#xd9;" horiz-adv-x="1265" d="M197 451l102 983h139l-102 -983q-8 -72 9 -136.5t57 -112.5t101.5 -77t139.5 -29t144.5 29t116.5 77t81 112.5t39 136.5l102 983h140l-103 -983q-10 -98 -53 -185.5t-112.5 -153t-163 -104.5t-203.5 -39q-109 0 -194 38t-142 103.5t-83 152.5t-15 188zM551 1815l76 108 l481 -281l-76 -108z" />
<glyph unicode="&#xda;" horiz-adv-x="1265" d="M197 451l102 983h139l-102 -983q-8 -72 9 -136.5t57 -112.5t101.5 -77t139.5 -29t144.5 29t116.5 77t81 112.5t39 136.5l102 983h140l-103 -983q-10 -98 -53 -185.5t-112.5 -153t-163 -104.5t-203.5 -39q-109 0 -194 38t-142 103.5t-83 152.5t-15 188zM494 1642l538 281 l53 -108l-538 -281z" />
<glyph unicode="&#xdb;" horiz-adv-x="1265" d="M197 451l102 983h139l-102 -983q-8 -72 9 -136.5t57 -112.5t101.5 -77t139.5 -29t144.5 29t116.5 77t81 112.5t39 136.5l102 983h140l-103 -983q-10 -98 -53 -185.5t-112.5 -153t-163 -104.5t-203.5 -39q-109 0 -194 38t-142 103.5t-83 152.5t-15 188zM444 1624l390 307 l327 -307l-88 -90l-254 250l-305 -248z" />
<glyph unicode="&#xdc;" horiz-adv-x="1265" d="M197 451l102 983h139l-102 -983q-8 -72 9 -136.5t57 -112.5t101.5 -77t139.5 -29t144.5 29t116.5 77t81 112.5t39 136.5l102 983h140l-103 -983q-10 -98 -53 -185.5t-112.5 -153t-163 -104.5t-203.5 -39q-109 0 -194 38t-142 103.5t-83 152.5t-15 188zM451 1692 q0 55 42 95t95 40q47 0 78.5 -33t31.5 -80q0 -55 -42 -94t-95 -39q-47 0 -78.5 32t-31.5 79zM922 1692q0 55 41 95t94 40q49 0 80.5 -33t31.5 -80q0 -57 -42 -95t-95 -38q-49 0 -79.5 32t-30.5 79z" />
<glyph unicode="&#xdd;" d="M170 1434h162l379 -723l446 723h154l-883 -1434h-154l351 567zM539 1649l538 280l56 -106l-539 -281z" />
<glyph unicode="&#xde;" horiz-adv-x="1021" d="M170 0l152 1434h127l-29 -273h192q102 0 181 -33.5t133.5 -91t82 -132.5t27.5 -156q0 -94 -36.5 -183.5t-104.5 -158t-164 -110.5t-215 -42h-192l-27 -254h-127zM336 369h192q86 0 156 30.5t119 81.5t75.5 118t26.5 138q0 61 -20.5 116.5t-58.5 98.5t-95 67.5t-131 24.5 h-192z" />
<glyph unicode="&#xdf;" horiz-adv-x="1142" d="M150 0l110 1049q8 90 46 164.5t99.5 129t143.5 85t180 30.5q88 0 161 -24.5t125 -70.5t80.5 -111.5t28.5 -145.5q0 -137 -79.5 -234.5t-221.5 -128.5q121 -29 192.5 -113.5t71.5 -217.5q0 -100 -41.5 -181t-112.5 -137.5t-162 -87.5t-191 -31q-51 0 -95.5 7.5t-72.5 17.5 l12 121q39 -12 84 -18.5t84 -6.5q74 0 139.5 22.5t115.5 62.5t78.5 97.5t28.5 127.5q0 55 -19.5 105t-57 89t-94 61.5t-132.5 22.5h-98l12 121h94q80 0 142.5 23.5t104.5 64.5t63.5 93t21.5 112q0 111 -71.5 175t-196.5 64q-141 0 -228 -79.5t-102 -208.5l-110 -1049h-133z " />
<glyph unicode="&#xe0;" horiz-adv-x="1212" d="M133 410q0 104 40 197t109.5 165t164 114t202.5 42q135 0 218 -60.5t118 -152.5l21 192h133l-97 -907h-133l21 190q-53 -92 -152.5 -152.5t-228.5 -60.5q-94 0 -171 35t-131 93.5t-84 137.5t-30 167zM266 420q0 -66 20.5 -124t60.5 -101t98.5 -69t132.5 -26 q82 0 152.5 32t120.5 85t78.5 123t28.5 147q0 66 -21.5 124.5t-61 101.5t-97 68.5t-131.5 25.5q-82 0 -151.5 -32t-120.5 -85t-80 -122.5t-29 -147.5zM414 1325l75 107l480 -281l-74 -107z" />
<glyph unicode="&#xe1;" horiz-adv-x="1212" d="M133 410q0 104 40 197t109.5 165t164 114t202.5 42q135 0 218 -60.5t118 -152.5l21 192h133l-97 -907h-133l21 190q-53 -92 -152.5 -152.5t-228.5 -60.5q-94 0 -171 35t-131 93.5t-84 137.5t-30 167zM266 420q0 -66 20.5 -124t60.5 -101t98.5 -69t132.5 -26 q82 0 152.5 32t120.5 85t78.5 123t28.5 147q0 66 -21.5 124.5t-61 101.5t-97 68.5t-131.5 25.5q-82 0 -151.5 -32t-120.5 -85t-80 -122.5t-29 -147.5zM401 1151l541 281l51 -107l-538 -281z" />
<glyph unicode="&#xe2;" horiz-adv-x="1212" d="M133 410q0 104 40 197t109.5 165t164 114t202.5 42q135 0 218 -60.5t118 -152.5l21 192h133l-97 -907h-133l21 190q-53 -92 -152.5 -152.5t-228.5 -60.5q-94 0 -171 35t-131 93.5t-84 137.5t-30 167zM266 420q0 -66 20.5 -124t60.5 -101t98.5 -69t132.5 -26 q82 0 152.5 32t120.5 85t78.5 123t28.5 147q0 66 -21.5 124.5t-61 101.5t-97 68.5t-131.5 25.5q-82 0 -151.5 -32t-120.5 -85t-80 -122.5t-29 -147.5zM342 1184l391 307l326 -307l-88 -90l-254 249l-305 -247z" />
<glyph unicode="&#xe3;" horiz-adv-x="1212" d="M133 410q0 104 40 197t109.5 165t164 114t202.5 42q135 0 218 -60.5t118 -152.5l21 192h133l-97 -907h-133l21 190q-53 -92 -152.5 -152.5t-228.5 -60.5q-94 0 -171 35t-131 93.5t-84 137.5t-30 167zM266 420q0 -66 20.5 -124t60.5 -101t98.5 -69t132.5 -26 q82 0 152.5 32t120.5 85t78.5 123t28.5 147q0 66 -21.5 124.5t-61 101.5t-97 68.5t-131.5 25.5q-82 0 -151.5 -32t-120.5 -85t-80 -122.5t-29 -147.5zM352 1227q53 82 119 119.5t133 37.5q51 0 87 -17t65.5 -37.5t56 -38t61.5 -17.5q47 0 85 32.5t63 77.5l96 -49 q-49 -86 -116.5 -127t-139.5 -41q-49 0 -86 17.5t-66.5 38t-58 38t-61.5 17.5q-43 0 -81 -30.5t-65 -80.5z" />
<glyph unicode="&#xe4;" horiz-adv-x="1212" d="M133 410q0 104 40 197t109.5 165t164 114t202.5 42q135 0 218 -60.5t118 -152.5l21 192h133l-97 -907h-133l21 190q-53 -92 -152.5 -152.5t-228.5 -60.5q-94 0 -171 35t-131 93.5t-84 137.5t-30 167zM266 420q0 -66 20.5 -124t60.5 -101t98.5 -69t132.5 -26 q82 0 152.5 32t120.5 85t78.5 123t28.5 147q0 66 -21.5 124.5t-61 101.5t-97 68.5t-131.5 25.5q-82 0 -151.5 -32t-120.5 -85t-80 -122.5t-29 -147.5zM332 1229q0 55 41 95t94 40q49 0 81 -33t32 -80q0 -57 -41 -95t-95 -38q-49 0 -80.5 32t-31.5 79zM803 1229q0 55 41 95 t94 40q49 0 81 -33t32 -80q0 -57 -41.5 -95t-94.5 -38q-49 0 -80.5 32t-31.5 79z" />
<glyph unicode="&#xe5;" horiz-adv-x="1212" d="M133 410q0 104 40 197t109.5 165t164 114t202.5 42q135 0 218 -60.5t118 -152.5l21 192h133l-97 -907h-133l21 190q-53 -92 -152.5 -152.5t-228.5 -60.5q-94 0 -171 35t-131 93.5t-84 137.5t-30 167zM266 420q0 -66 20.5 -124t60.5 -101t98.5 -69t132.5 -26 q82 0 152.5 32t120.5 85t78.5 123t28.5 147q0 66 -21.5 124.5t-61 101.5t-97 68.5t-131.5 25.5q-82 0 -151.5 -32t-120.5 -85t-80 -122.5t-29 -147.5zM442 1260q0 57 23.5 107t62.5 88t90.5 60.5t106.5 22.5q51 0 94 -19.5t75 -51t49.5 -74.5t17.5 -90q0 -55 -24 -106.5 t-62.5 -90.5t-91 -61.5t-107.5 -22.5q-51 0 -94 19.5t-74 51t-48.5 74.5t-17.5 93zM530 1266q0 -63 43 -108.5t111 -45.5q37 0 70.5 14.5t58.5 40t40 59.5t15 70q0 66 -41.5 110t-109.5 44q-37 0 -71 -14.5t-59.5 -40t-41 -59t-15.5 -70.5z" />
<glyph unicode="&#xe6;" horiz-adv-x="1875" d="M133 410q0 104 40 197t109.5 165t164 114t202.5 42q135 0 218 -60.5t118 -152.5l21 192h133l-15 -125q55 66 138.5 106t185.5 40q84 0 154.5 -28t121 -78t79 -119.5t28.5 -151.5q0 -39 -5 -66.5t-14 -60.5h-722q-8 -70 5 -130.5t47 -104.5t90 -69.5t136 -25.5 q117 0 185.5 49.5t101.5 116.5h137q-18 -55 -57 -105.5t-94.5 -90t-126 -63.5t-154.5 -24q-109 0 -184.5 40t-118.5 112l-15 -129h-133l21 190q-53 -92 -152.5 -152.5t-228.5 -60.5q-94 0 -171 35t-131 93.5t-84 137.5t-30 167zM266 420q0 -66 20.5 -124t60.5 -101t98.5 -69 t132.5 -26q82 0 152.5 32t120.5 85t78.5 123t28.5 147q0 66 -21.5 124.5t-61 101.5t-97 68.5t-131.5 25.5q-82 0 -151.5 -32t-120.5 -85t-80 -122.5t-29 -147.5zM1102 528h596q6 63 -10.5 116.5t-51 90.5t-87 57.5t-115.5 20.5q-129 0 -220.5 -77t-111.5 -208z" />
<glyph unicode="&#xe7;" horiz-adv-x="1073" d="M139 406q0 98 34 192t99.5 168t160.5 119t220 45q104 0 178 -32t119 -82t64.5 -113.5t17.5 -127.5h-133q0 45 -13.5 87.5t-44 75t-79.5 52t-119 19.5q-92 0 -160.5 -34t-114.5 -89t-70 -127t-24 -147q0 -63 17.5 -119.5t53.5 -99.5t92.5 -68t135.5 -25q123 0 197 58.5 t104 152.5h134q-35 -137 -149 -226t-294 -103l-26 -2l-13 -127q37 47 115 47q66 0 106.5 -42t40.5 -108q0 -39 -15 -74.5t-43 -63.5t-66.5 -44.5t-85.5 -16.5q-31 0 -63 9.5t-57.5 28t-43 48t-19.5 72.5h88q4 -35 29 -57.5t68 -22.5q53 0 86.5 33t33.5 80q0 39 -23.5 65.5 t-70.5 26.5q-29 0 -55.5 -12t-48.5 -47h-76l23 213q-78 14 -136.5 54t-96.5 96.5t-57.5 125t-19.5 142.5z" />
<glyph unicode="&#xe8;" horiz-adv-x="1062" d="M139 403q0 111 35 206.5t99.5 166t154.5 111.5t199 41q90 0 162.5 -29t123 -79t78 -118.5t27.5 -150.5q0 -39 -5 -66.5t-14 -60.5h-727q-4 -61 7.5 -120.5t44 -105.5t89 -75t142.5 -29q117 0 186.5 49.5t100.5 116.5h135q-18 -55 -56 -106.5t-93.5 -90t-128 -62.5 t-158.5 -24q-102 0 -178 34t-125.5 91.5t-74 135t-24.5 165.5zM287 528h600q6 68 -10.5 122.5t-51 92t-88 59t-116.5 21.5q-125 0 -219.5 -76.5t-114.5 -218.5zM416 1325l76 107l481 -281l-76 -107z" />
<glyph unicode="&#xe9;" horiz-adv-x="1062" d="M139 403q0 111 35 206.5t99.5 166t154.5 111.5t199 41q90 0 162.5 -29t123 -79t78 -118.5t27.5 -150.5q0 -39 -5 -66.5t-14 -60.5h-727q-4 -61 7.5 -120.5t44 -105.5t89 -75t142.5 -29q117 0 186.5 49.5t100.5 116.5h135q-18 -55 -56 -106.5t-93.5 -90t-128 -62.5 t-158.5 -24q-102 0 -178 34t-125.5 91.5t-74 135t-24.5 165.5zM287 528h600q6 68 -10.5 122.5t-51 92t-88 59t-116.5 21.5q-125 0 -219.5 -76.5t-114.5 -218.5zM354 1151l539 281l51 -107l-538 -281z" />
<glyph unicode="&#xea;" horiz-adv-x="1062" d="M139 403q0 111 35 206.5t99.5 166t154.5 111.5t199 41q90 0 162.5 -29t123 -79t78 -118.5t27.5 -150.5q0 -39 -5 -66.5t-14 -60.5h-727q-4 -61 7.5 -120.5t44 -105.5t89 -75t142.5 -29q117 0 186.5 49.5t100.5 116.5h135q-18 -55 -56 -106.5t-93.5 -90t-128 -62.5 t-158.5 -24q-102 0 -178 34t-125.5 91.5t-74 135t-24.5 165.5zM287 528h600q6 68 -10.5 122.5t-51 92t-88 59t-116.5 21.5q-125 0 -219.5 -76.5t-114.5 -218.5zM305 1184l391 307l326 -307l-86 -90l-256 249l-303 -247z" />
<glyph unicode="&#xeb;" horiz-adv-x="1062" d="M139 403q0 111 35 206.5t99.5 166t154.5 111.5t199 41q90 0 162.5 -29t123 -79t78 -118.5t27.5 -150.5q0 -39 -5 -66.5t-14 -60.5h-727q-4 -61 7.5 -120.5t44 -105.5t89 -75t142.5 -29q117 0 186.5 49.5t100.5 116.5h135q-18 -55 -56 -106.5t-93.5 -90t-128 -62.5 t-158.5 -24q-102 0 -178 34t-125.5 91.5t-74 135t-24.5 165.5zM287 528h600q6 68 -10.5 122.5t-51 92t-88 59t-116.5 21.5q-125 0 -219.5 -76.5t-114.5 -218.5zM311 1227q0 55 40 95t93 40q49 0 80 -33t31 -80q0 -55 -40 -94t-95 -39q-47 0 -78 32t-31 79zM782 1227 q0 55 40 95t93 40q49 0 80 -33t31 -80q0 -55 -40 -94t-95 -39q-47 0 -78 32t-31 79z" />
<glyph unicode="&#xec;" horiz-adv-x="473" d="M92 1346l74 106l481 -281l-74 -106zM170 0l96 907h133l-96 -907h-133z" />
<glyph unicode="&#xed;" horiz-adv-x="473" d="M74 1171l538 281l54 -106l-539 -281zM170 0l94 907h133l-94 -907h-133z" />
<glyph unicode="&#xee;" horiz-adv-x="473" d="M4 1184l389 307l328 -307l-88 -90l-254 249l-305 -247zM170 0l96 907h133l-96 -907h-133z" />
<glyph unicode="&#xef;" horiz-adv-x="473" d="M41 1229q0 55 41 95t94 40q49 0 80 -33t31 -80q0 -55 -41 -94t-96 -39q-47 0 -78 32t-31 79zM170 0l96 907h133l-96 -907h-133zM469 1229q0 55 41 95t94 40q49 0 81 -33t32 -80q0 -55 -41 -94t-94 -39q-49 0 -81 32t-32 79z" />
<glyph unicode="&#xf0;" horiz-adv-x="1153" d="M145 408q0 104 40 198t110 166t164 114t205 42q49 0 86.5 -10.5t58.5 -34.5l-117 229l-264 -137l-37 86l254 131l-121 242h160l88 -174l186 96l37 -84l-180 -96l215 -412q35 -66 55.5 -130.5t20.5 -139.5q0 -102 -40 -195.5t-110.5 -165.5t-166.5 -114t-211 -42 q-102 0 -183.5 35t-136.5 93.5t-84 136t-29 166.5zM279 420q0 -66 21.5 -124t61 -101t98 -69t132.5 -26q82 0 151.5 32t119.5 85t79 123t29 147q0 66 -20.5 124.5t-60.5 101.5t-97.5 68.5t-130.5 25.5q-84 0 -154 -32t-121 -85t-79.5 -122.5t-28.5 -147.5z" />
<glyph unicode="&#xf1;" horiz-adv-x="1150" d="M170 0l96 907h133l-22 -196q49 92 143 154.5t230 62.5q88 0 152.5 -30t103.5 -83t49 -122.5t0 -160.5l-56 -532h-133l52 494q6 68 -2.5 125t-35 99t-73.5 66.5t-115 24.5q-78 0 -138 -29.5t-102 -79t-68 -111t-32 -124.5l-49 -465h-133zM340 1227q53 82 118.5 119.5 t133.5 37.5q51 0 86 -17t64.5 -37.5t56 -38t61.5 -17.5q47 0 86 32.5t64 77.5l96 -49q-49 -86 -116.5 -127t-139.5 -41q-49 0 -86 17.5t-66.5 38t-58.5 38t-61 17.5q-43 0 -81 -30.5t-65 -80.5z" />
<glyph unicode="&#xf2;" horiz-adv-x="1130" d="M133 408q0 104 40 198t109.5 166t166 114t210.5 42q102 0 183.5 -34t136.5 -92.5t85 -137t30 -166.5q0 -104 -40 -198.5t-111 -166.5t-167 -114t-211 -42q-102 0 -182 35t-135 93.5t-85 136t-30 166.5zM266 420q0 -66 20.5 -124t60.5 -101t98.5 -69t132.5 -26 q82 0 152.5 32t120.5 85t78.5 123t28.5 147q0 66 -21.5 124.5t-61 101.5t-97 68.5t-131.5 25.5q-82 0 -151.5 -32t-120.5 -85t-80 -122.5t-29 -147.5zM428 1325l76 107l479 -281l-74 -107z" />
<glyph unicode="&#xf3;" horiz-adv-x="1130" d="M133 408q0 104 40 198t109.5 166t166 114t210.5 42q102 0 183.5 -34t136.5 -92.5t85 -137t30 -166.5q0 -104 -40 -198.5t-111 -166.5t-167 -114t-211 -42q-102 0 -182 35t-135 93.5t-85 136t-30 166.5zM266 420q0 -66 20.5 -124t60.5 -101t98.5 -69t132.5 -26 q82 0 152.5 32t120.5 85t78.5 123t28.5 147q0 66 -21.5 124.5t-61 101.5t-97 68.5t-131.5 25.5q-82 0 -151.5 -32t-120.5 -85t-80 -122.5t-29 -147.5zM369 1151l540 281l52 -107l-539 -281z" />
<glyph unicode="&#xf4;" horiz-adv-x="1130" d="M133 408q0 104 40 198t109.5 166t166 114t210.5 42q102 0 183.5 -34t136.5 -92.5t85 -137t30 -166.5q0 -104 -40 -198.5t-111 -166.5t-167 -114t-211 -42q-102 0 -182 35t-135 93.5t-85 136t-30 166.5zM266 420q0 -66 20.5 -124t60.5 -101t98.5 -69t132.5 -26 q82 0 152.5 32t120.5 85t78.5 123t28.5 147q0 66 -21.5 124.5t-61 101.5t-97 68.5t-131.5 25.5q-82 0 -151.5 -32t-120.5 -85t-80 -122.5t-29 -147.5zM330 1184l391 309l326 -309l-89 -88l-253 247l-306 -247z" />
<glyph unicode="&#xf5;" horiz-adv-x="1130" d="M133 408q0 104 40 198t109.5 166t166 114t210.5 42q102 0 183.5 -34t136.5 -92.5t85 -137t30 -166.5q0 -104 -40 -198.5t-111 -166.5t-167 -114t-211 -42q-102 0 -182 35t-135 93.5t-85 136t-30 166.5zM266 420q0 -66 20.5 -124t60.5 -101t98.5 -69t132.5 -26 q82 0 152.5 32t120.5 85t78.5 123t28.5 147q0 66 -21.5 124.5t-61 101.5t-97 68.5t-131.5 25.5q-82 0 -151.5 -32t-120.5 -85t-80 -122.5t-29 -147.5zM315 1227q53 82 119 119.5t133 37.5q51 0 87 -17t66 -37.5t56.5 -38t61.5 -17.5q47 0 85 32.5t62 77.5l96 -49 q-49 -86 -116.5 -127t-139.5 -41q-49 0 -86 17.5t-66.5 38t-58 38t-61.5 17.5q-43 0 -81 -30.5t-64 -80.5z" />
<glyph unicode="&#xf6;" horiz-adv-x="1130" d="M133 408q0 104 40 198t109.5 166t166 114t210.5 42q102 0 183.5 -34t136.5 -92.5t85 -137t30 -166.5q0 -104 -40 -198.5t-111 -166.5t-167 -114t-211 -42q-102 0 -182 35t-135 93.5t-85 136t-30 166.5zM266 420q0 -66 20.5 -124t60.5 -101t98.5 -69t132.5 -26 q82 0 152.5 32t120.5 85t78.5 123t28.5 147q0 66 -21.5 124.5t-61 101.5t-97 68.5t-131.5 25.5q-82 0 -151.5 -32t-120.5 -85t-80 -122.5t-29 -147.5zM336 1229q0 55 41 95t94 40q49 0 81 -33t32 -80q0 -55 -41.5 -94t-96.5 -39q-47 0 -78.5 32t-31.5 79zM807 1229 q0 55 41 95t94 40q49 0 80 -33t31 -80q0 -55 -40 -94t-95 -39q-47 0 -79 32t-32 79z" />
<glyph unicode="&#xf7;" d="M215 420l12 121h828l-13 -121h-827zM483 176q0 25 11.5 50.5t30 45t43 32.5t50.5 13q25 0 45.5 -11t35 -28.5t22.5 -39t8 -41.5q0 -47 -41 -86t-96 -39q-51 0 -80 32.5t-29 71.5zM545 772q0 55 41 95t94 40q49 0 80 -32.5t31 -79.5q0 -55 -40 -94t-94 -39 q-49 0 -80.5 31.5t-31.5 78.5z" />
<glyph unicode="&#xf8;" horiz-adv-x="1130" d="M133 408q0 104 40 198t109.5 166t166 114t208.5 42q37 0 70 -4t64 -13l69 131l84 -34l-72 -129q106 -51 164 -154.5t58 -228.5q0 -102 -39 -196.5t-110 -166.5t-168 -114t-214 -42q-47 0 -86 7.5t-74 19.5l-75 -143l-84 37l75 145q-90 55 -138 152.5t-48 212.5zM266 420 q0 -80 31 -149.5t88 -110.5l342 637q-20 4 -37.5 7t-42.5 3q-82 0 -151.5 -32t-120.5 -85t-80 -122.5t-29 -147.5zM465 117q25 -10 51 -13.5t53 -3.5q88 0 160 32t123 84t78.5 122t27.5 147q0 90 -37.5 163t-109.5 114z" />
<glyph unicode="&#xf9;" horiz-adv-x="1146" d="M188 375l56 532h135l-51 -493q-6 -68 2 -125.5t34.5 -99.5t72.5 -66.5t114 -24.5q78 0 138.5 30t102.5 79t67.5 110.5t31.5 124.5l49 465h133l-96 -907h-133l20 197q-51 -98 -145 -159t-223 -61q-88 0 -154 31t-104 84q-39 53 -49.5 123t-0.5 160zM430 1325l76 107 l479 -281l-74 -107z" />
<glyph unicode="&#xfa;" horiz-adv-x="1146" d="M188 375l56 532h135l-51 -493q-6 -68 2 -125.5t34.5 -99.5t72.5 -66.5t114 -24.5q78 0 138.5 30t102.5 79t67.5 110.5t31.5 124.5l49 465h133l-96 -907h-133l20 197q-51 -98 -145 -159t-223 -61q-88 0 -154 31t-104 84q-39 53 -49.5 123t-0.5 160zM406 1151l540 281 l51 -107l-538 -281z" />
<glyph unicode="&#xfb;" horiz-adv-x="1148" d="M188 375l56 532h135l-51 -493q-6 -68 2 -125.5t34.5 -99.5t72.5 -66.5t114 -24.5q78 0 138.5 30t102.5 79t67.5 110.5t31.5 124.5l49 465h133l-96 -907h-133l20 197q-51 -98 -145 -159t-223 -61q-88 0 -154 31t-104 84q-39 53 -49.5 123t-0.5 160zM346 1184l391 307 l326 -307l-88 -90l-254 249l-303 -247z" />
<glyph unicode="&#xfc;" horiz-adv-x="1146" d="M188 375l56 532h135l-51 -493q-6 -68 2 -125.5t34.5 -99.5t72.5 -66.5t114 -24.5q78 0 138.5 30t102.5 79t67.5 110.5t31.5 124.5l49 465h133l-96 -907h-133l20 197q-51 -98 -145 -159t-223 -61q-88 0 -154 31t-104 84q-39 53 -49.5 123t-0.5 160zM338 1229q0 55 40 95 t93 40q49 0 80 -33t31 -80q0 -55 -40 -94t-96 -39q-47 0 -77.5 32t-30.5 79zM809 1229q0 55 40 95t93 40q49 0 80 -33t31 -80q0 -55 -40 -94t-95 -39q-47 0 -78 32t-31 79z" />
<glyph unicode="&#xfd;" horiz-adv-x="1163" d="M139 -133h135q-8 -156 57.5 -227.5t207.5 -71.5q66 0 120 16.5t94 55t65.5 100t35.5 154.5l33 303q-49 -92 -139.5 -156t-233.5 -64q-176 0 -258 111q-35 47 -46 114.5t1 182.5l55 522h135l-51 -483q-16 -147 31 -236.5t186 -89.5q82 0 143.5 30t104.5 79t67.5 110.5 t30.5 124.5l50 465h131l-107 -1013q-25 -233 -142.5 -337t-320.5 -104q-420 0 -385 414zM424 1151l539 281l55 -107l-539 -281z" />
<glyph unicode="&#xfe;" horiz-adv-x="1208" d="M115 -526l207 1960h133l-76 -719q53 98 154.5 155.5t226.5 57.5q94 0 171 -34t131 -92.5t84 -137t30 -166.5q0 -104 -40 -198.5t-109 -166.5t-163 -114t-202 -42q-135 0 -220.5 61.5t-117.5 151.5l-76 -716h-133zM348 420q0 -66 21.5 -124t61.5 -101t98.5 -69t132.5 -26 q82 0 151.5 32t120.5 85t78.5 123t27.5 147q0 66 -20.5 124.5t-60 101.5t-98 68.5t-132.5 25.5q-84 0 -153.5 -32t-119.5 -85t-79 -122.5t-29 -147.5z" />
<glyph unicode="&#xff;" horiz-adv-x="1163" d="M139 -133h135q-8 -156 57.5 -227.5t207.5 -71.5q66 0 120 16.5t94 55t65.5 100t35.5 154.5l33 303q-49 -92 -139.5 -156t-233.5 -64q-176 0 -258 111q-35 47 -46 114.5t1 182.5l55 522h135l-51 -483q-16 -147 31 -236.5t186 -89.5q82 0 143.5 30t104.5 79t67.5 110.5 t30.5 124.5l50 465h131l-107 -1013q-25 -233 -142.5 -337t-320.5 -104q-420 0 -385 414zM375 1227q0 53 38 92t91 39q47 0 77.5 -31t30.5 -78q0 -53 -38.5 -91t-92.5 -38q-47 0 -76.5 30t-29.5 77zM846 1227q0 55 39 93t92 38q47 0 76.5 -31t29.5 -78q0 -53 -38.5 -91 t-92.5 -38q-47 0 -76.5 30t-29.5 77z" />
<glyph unicode="&#x152;" horiz-adv-x="2359" d="M160 643q0 156 59.5 304.5t167 262t258 183t332.5 69.5q109 0 198 -25.5t158.5 -70.5t119.5 -106.5t83 -133.5l33 308h782l-12 -127h-643l-58 -531h643l-12 -127h-643l-55 -522h643l-14 -127h-783l33 303q-47 -74 -111.5 -135.5t-144.5 -105.5t-174 -69.5t-199 -25.5 q-160 0 -282.5 56.5t-206.5 149.5t-128 215t-44 255zM305 653q0 -111 35 -211t102.5 -178t168 -124t229.5 -46q145 0 266 57.5t208 152.5t135 218t48 254q0 111 -35 211t-102.5 178t-167.5 124t-231 46q-145 0 -266.5 -57t-207.5 -152.5t-134 -218.5t-48 -254z" />
<glyph unicode="&#x153;" horiz-adv-x="1875" d="M133 408q0 104 39 198t109.5 166t167 114t210.5 42q143 0 240.5 -64.5t142.5 -169.5q57 104 163 169t241 65q88 0 158.5 -29t121 -79t78 -118.5t27.5 -150.5q0 -39 -5 -66.5t-14 -60.5h-722q-8 -70 5 -130.5t48 -104.5t91 -69.5t136 -25.5q115 0 183.5 49.5t101.5 116.5 h137q-18 -55 -57 -106.5t-95.5 -90t-127 -62.5t-154.5 -24q-147 0 -237.5 67t-127.5 169q-66 -104 -177 -170t-255 -66q-100 0 -179 34t-134 92.5t-85 137t-30 167.5zM266 420q0 -66 20.5 -124t60.5 -101t98.5 -69t132.5 -26q82 0 151.5 31t120.5 84t79.5 123t28.5 149 q0 66 -21.5 124.5t-61 101.5t-97 68.5t-131.5 25.5q-82 0 -151.5 -32t-120.5 -85t-80 -122.5t-29 -147.5zM1102 528h596q6 63 -10.5 116.5t-51 90.5t-87 57.5t-115.5 20.5q-129 0 -220.5 -77t-111.5 -208z" />
<glyph unicode="&#x178;" d="M170 1434h162l379 -723l446 723h154l-883 -1434h-154l351 567zM444 1692q0 53 39 92t92 39q47 0 77 -32t30 -77q0 -53 -39 -91t-92 -38q-47 0 -77 31t-30 76zM915 1692q0 53 39 92t93 39q47 0 76.5 -32t29.5 -77q0 -53 -39 -91t-92 -38q-47 0 -77 31t-30 76z" />
<glyph unicode="&#x2c6;" horiz-adv-x="913" d="M236 1427l399 297l338 -297l-94 -94l-261 230l-309 -230z" />
<glyph unicode="&#x2dc;" horiz-adv-x="960" d="M281 1356q49 29 83.5 45t60.5 23.5t43 8.5t32 1q23 0 61.5 -8.5t80.5 -19.5t83 -19.5t70 -8.5q10 0 22 2t29.5 8.5t43 16.5t62.5 29l45 -91q-84 -53 -131 -64t-71 -11q-37 0 -76 8t-78 18.5t-75 18.5t-68 8q-29 0 -66 -10.5t-100 -44.5z" />
<glyph unicode="&#x2000;" horiz-adv-x="999" />
<glyph unicode="&#x2001;" horiz-adv-x="1999" />
<glyph unicode="&#x2002;" horiz-adv-x="999" />
<glyph unicode="&#x2003;" horiz-adv-x="1999" />
<glyph unicode="&#x2004;" horiz-adv-x="666" />
<glyph unicode="&#x2005;" horiz-adv-x="499" />
<glyph unicode="&#x2006;" horiz-adv-x="333" />
<glyph unicode="&#x2007;" horiz-adv-x="333" />
<glyph unicode="&#x2008;" horiz-adv-x="249" />
<glyph unicode="&#x2009;" horiz-adv-x="399" />
<glyph unicode="&#x200a;" horiz-adv-x="111" />
<glyph unicode="&#x2010;" horiz-adv-x="602" d="M117 522l12 121h479l-12 -121h-479z" />
<glyph unicode="&#x2011;" horiz-adv-x="602" d="M117 522l12 121h479l-12 -121h-479z" />
<glyph unicode="&#x2012;" horiz-adv-x="602" d="M117 522l12 121h479l-12 -121h-479z" />
<glyph unicode="&#x2013;" horiz-adv-x="1030" d="M158 522l12 121h825l-12 -121h-825z" />
<glyph unicode="&#x2014;" horiz-adv-x="2060" d="M158 522l12 121h1855l-12 -121h-1855z" />
<glyph unicode="&#x2018;" horiz-adv-x="524" d="M252 1239q0 141 81 209t212 68l-6 -72q-119 0 -152 -84q-16 -29 -18 -48.5t-2 -35.5q20 16 55 16q45 0 73.5 -29.5t28.5 -74.5q0 -53 -40 -93t-99 -40q-63 0 -98 47t-35 137z" />
<glyph unicode="&#x2019;" horiz-adv-x="524" d="M248 1055l8 71q57 0 95 22.5t55 61.5q16 29 18 49.5t2 34.5q-16 -16 -53 -16q-47 0 -76 29.5t-29 74.5q0 53 41 93.5t101 40.5q63 0 97 -48.5t34 -138.5q0 -141 -81 -207.5t-212 -66.5z" />
<glyph unicode="&#x201a;" horiz-adv-x="524" d="M113 -242l8 72q117 0 149 84q16 29 18.5 48.5t2.5 35.5q-16 -16 -55 -16q-45 0 -74 29.5t-29 74.5q0 53 40 93t99 40q63 0 98.5 -47t35.5 -139q0 -139 -80 -207t-213 -68z" />
<glyph unicode="&#x201c;" horiz-adv-x="856" d="M252 1239q0 141 81 209t212 68l-6 -72q-119 0 -152 -84q-16 -29 -18 -48.5t-2 -35.5q20 16 55 16q45 0 73.5 -29.5t28.5 -74.5q0 -53 -40 -93t-99 -40q-63 0 -98 47t-35 137zM584 1241q0 135 79.5 205t213.5 70l-7 -72q-55 0 -95 -21.5t-56 -62.5q-14 -29 -17.5 -48.5 t-1.5 -35.5q20 16 54 16q47 0 74.5 -29.5t27.5 -74.5q0 -53 -39 -93t-98 -40q-63 0 -99 47t-36 139z" />
<glyph unicode="&#x201d;" horiz-adv-x="856" d="M248 1055l8 71q57 0 95 22.5t55 61.5q16 29 18 49.5t2 34.5q-16 -16 -53 -16q-47 0 -76 29.5t-29 74.5q0 53 41 93.5t101 40.5q63 0 97 -48.5t34 -138.5q0 -141 -81 -207.5t-212 -66.5zM580 1055l8 71q59 0 96 22.5t53 61.5q16 29 19.5 49.5t1.5 34.5q-16 -16 -51 -16 q-47 0 -77 29.5t-30 76.5q0 53 40 92.5t101 39.5q63 0 97 -47.5t34 -137.5q0 -141 -80.5 -208.5t-211.5 -67.5z" />
<glyph unicode="&#x201e;" horiz-adv-x="856" d="M113 -242l8 72q117 0 149 84q16 29 18.5 48.5t2.5 35.5q-16 -16 -55 -16q-45 0 -74 29.5t-29 74.5q0 53 40 93t99 40q63 0 98.5 -47t35.5 -139q0 -139 -80 -207t-213 -68zM444 -242l9 72q117 0 149 84q16 29 19.5 48.5t1.5 35.5q-16 -16 -54 -16q-45 0 -74.5 29.5 t-29.5 76.5q0 53 40 92t101 39q63 0 97 -47t34 -137q0 -141 -81 -209t-212 -68z" />
<glyph unicode="&#x2022;" horiz-adv-x="702" d="M178 618q0 53 21.5 100.5t58.5 83.5t84 56.5t100 20.5q94 0 154.5 -63.5t60.5 -156.5q0 -53 -21.5 -100t-57 -82t-84 -55.5t-99.5 -20.5q-96 0 -156.5 62.5t-60.5 154.5z" />
<glyph unicode="&#x2026;" horiz-adv-x="1871" d="M123 102q0 55 41 94.5t94 39.5q49 0 81 -33t32 -80q0 -53 -41 -93t-97 -40q-49 0 -79.5 32.5t-30.5 79.5zM823 100q0 55 41 95.5t94 40.5q49 0 81 -33t32 -80q0 -55 -42 -94t-95 -39q-49 0 -80 31.5t-31 78.5zM1524 100q0 55 41 94t94 39q49 0 81 -32.5t32 -79.5 q0 -53 -41 -93t-97 -40q-49 0 -79.5 32.5t-30.5 79.5z" />
<glyph unicode="&#x202f;" horiz-adv-x="399" />
<glyph unicode="&#x2039;" horiz-adv-x="565" d="M139 553l8 86l439 348l-15 -137l-317 -254l264 -254l-14 -137z" />
<glyph unicode="&#x203a;" horiz-adv-x="565" d="M104 205l15 137l317 254l-264 254l14 137l365 -348l-8 -86z" />
<glyph unicode="&#x205f;" horiz-adv-x="499" />
<glyph unicode="&#x20ac;" horiz-adv-x="1239" d="M100 496l35 106h107l24 223h-127l37 105h103l4 45q8 98 52 185t113.5 151.5t161.5 102.5t199 38q104 0 186 -36t137.5 -96t83 -142t21.5 -174h-141q2 70 -17.5 128t-59.5 101t-97.5 67.5t-126.5 24.5q-78 0 -143.5 -28.5t-115 -77t-79 -112t-35.5 -132.5l-4 -45h506 l-37 -105h-481l-25 -223h502l-35 -106h-477l-4 -41q-6 -72 11 -135.5t55 -110.5t97.5 -75t135.5 -28t141 28t114.5 75t80 110.5t38.5 135.5h142q-10 -96 -53.5 -183.5t-114 -153t-162.5 -103.5t-201 -38t-192.5 39t-138 104.5t-79 151.5t-14.5 183l4 41h-131z" />
<glyph unicode="&#x2122;" horiz-adv-x="1648" d="M223 1339l10 95h531l-10 -95h-213l-78 -739h-105l78 739h-213zM836 600l88 834h161l177 -660l315 660h162l-88 -834h-103l74 698l-332 -698h-94l-184 698l-74 -698h-102z" />
<glyph unicode="&#x25fc;" horiz-adv-x="911" d="M0 0v911h911v-911h-911z" />
</font>
</defs>
</svg>
